<svg height="430pt" width="540pt" xmlns="http://www.w3.org/2000/svg" xmlns:xlink="http://www.w3.org/1999/xlink"><marker id="a" orient="auto" overflow="visible" refX="0" refY="0"><path d="m0 0 5-5-17.5 5 17.5 5-5-5z" fill-rule="evenodd" stroke="#000" stroke-width="1pt" transform="scale(.8)"/></marker><path d="m168.29141 264.64521-86.267024 162.63456" fill="none" stroke="#000"/><path d="m560.65685 142.34788v108" fill="none" stroke="#000"/><path d="m560.65685 142.34788 52 108" fill="none" stroke="#000"/><path d="m321.65685 88.34788 240 55" fill="none" stroke="#000"/><path d="m321.65685 88.34788 125.61522 55" fill="none" stroke="#000"/><path d="m321.65685 88.34788-3 55" fill="none" stroke="#000"/><path d="m321.65685 88.34788-122 55-23 110" fill="none" stroke="#000"/><path d="m321.65685 88.34788-122 55 19 110" fill="none" stroke="#000"/><path d="m321.65685 88.34788-214 55 24 111" fill="none" stroke="#000"/><path d="m321.65685 88.34788-214 55-2 111" fill="none" stroke="#000"/><path d="m321.65685 88.34788-214 55-48.999996 111" fill="none" stroke="#000"/><path d="m317.65685 142.34788-39 109" fill="none" stroke="#000"/><path d="m317.65685 142.34788-10 109" fill="none" stroke="#000"/><path d="m317.65685 142.34788 32 109" fill="none" stroke="#000"/><path d="m317.65685 142.34788 57 109" fill="none" stroke="#000"/><path d="m447.65685 143.34788-16 107" fill="none" stroke="#000"/><path d="m447.65685 143.34788 29 107" fill="none" stroke="#000"/><path d="m447.65685 143.34788 73 107" fill="none" stroke="#000"/><text font-family="Bitstream Vera Sans" font-size="23.972092" x="190.48772" y="48.574749"><tspan x="190.48772" y="48.574749">Domain Name Space (DNS)</tspan></text><g stroke="#000" transform="matrix(.555556 0 0 .555556 27.87907 13.9244)"><path d="m28 415.36218h35v51h-35z" fill="#ffffc2" fill-rule="evenodd"/><g fill="none"><path d="m33.380539 437.88823c2.9242 4.983 9.003461-4.66151 6.002308-5.30448-3.001155-.64297-3.155061 6.26893-.384764 6.10819 2.770296-.16074 8.233927-3.37558 8.233927-3.37558s1.23124 5.78671 4.3863 3.37558"/><path d="m32.457108 423.26072c2.770295-2.57187 6.233162 6.75116 10.157742 3.69706s6.38707-7.71561 8.38784-3.69706c2.00077 4.01854 4.5402 1.44667 4.5402 1.44667"/><path d="m33.303587 448.97942c2.847247-2.08964 3.308963-2.25038 5.694496-.16074 2.385531 2.08965 4.078487-.32148 4.078487-.32148"/><path d="m45.38515 448.33646c3.61677 3.05409 3.46286.48222 7.4644.48222"/><path d="m33.534445 457.82023c.769526-5.14374 3.847631-1.28593 5.617541.96445 1.769912 2.25039 4.001534-3.53632 8.233934-1.76816 4.23239 1.76816 4.61715 2.57187 6.69487.16074"/></g></g><g stroke="#000" transform="translate(357.1569 -73.5143)"><path d="m28 415.36218h35v51h-35z" fill="#ffffc2" fill-rule="evenodd"/><g fill="none"><path d="m33.380539 437.88823c2.9242 4.983 9.003461-4.66151 6.002308-5.30448-3.001155-.64297-3.155061 6.26893-.384764 6.10819 2.770296-.16074 8.233927-3.37558 8.233927-3.37558s1.23124 5.78671 4.3863 3.37558"/><path d="m32.457108 423.26072c2.770295-2.57187 6.233162 6.75116 10.157742 3.69706s6.38707-7.71561 8.38784-3.69706c2.00077 4.01854 4.5402 1.44667 4.5402 1.44667"/><path d="m33.303587 448.97942c2.847247-2.08964 3.308963-2.25038 5.694496-.16074 2.385531 2.08965 4.078487-.32148 4.078487-.32148"/><path d="m45.38515 448.33646c3.61677 3.05409 3.46286.48222 7.4644.48222"/><path d="m33.534445 457.82023c.769526-5.14374 3.847631-1.28593 5.617541.96445 1.769912 2.25039 4.001534-3.53632 8.233934-1.76816 4.23239 1.76816 4.61715 2.57187 6.69487.16074"/></g></g><text font-family="Bitstream Vera Sans" font-size="32.721752" x="424.17792" y="375.94485"><tspan x="424.17792" y="375.94485">=</tspan></text><text font-family="Bitstream Vera Sans" font-size="12" x="455.65686" y="360.34787"><tspan font-weight="bold" x="455.65686" y="360.34787">resource records</tspan><tspan x="455.65686" y="375.34787">associated with name</tspan></text><g stroke="#000"><g transform="matrix(.555556 0 0 .555556 66.37905 -100.5757)"><path d="m28 415.36218h35v51h-35z" fill="#ffffc2" fill-rule="evenodd"/><g fill="none"><path d="m33.380539 437.88823c2.9242 4.983 9.003461-4.66151 6.002308-5.30448-3.001155-.64297-3.155061 6.26893-.384764 6.10819 2.770296-.16074 8.233927-3.37558 8.233927-3.37558s1.23124 5.78671 4.3863 3.37558"/><path d="m32.457108 423.26072c2.770295-2.57187 6.233162 6.75116 10.157742 3.69706s6.38707-7.71561 8.38784-3.69706c2.00077 4.01854 4.5402 1.44667 4.5402 1.44667"/><path d="m33.303587 448.97942c2.847247-2.08964 3.308963-2.25038 5.694496-.16074 2.385531 2.08965 4.078487-.32148 4.078487-.32148"/><path d="m45.38515 448.33646c3.61677 3.05409 3.46286.48222 7.4644.48222"/><path d="m33.534445 457.82023c.769526-5.14374 3.847631-1.28593 5.617541.96445 1.769912 2.25039 4.001534-3.53632 8.233934-1.76816 4.23239 1.76816 4.61715 2.57187 6.69487.16074"/></g></g><g transform="matrix(.555556 0 0 .555556 160.3791 -95.5757)"><path d="m28 415.36218h35v51h-35z" fill="#ffffc2" fill-rule="evenodd"/><g fill="none"><path d="m33.380539 437.88823c2.9242 4.983 9.003461-4.66151 6.002308-5.30448-3.001155-.64297-3.155061 6.26893-.384764 6.10819 2.770296-.16074 8.233927-3.37558 8.233927-3.37558s1.23124 5.78671 4.3863 3.37558"/><path d="m32.457108 423.26072c2.770295-2.57187 6.233162 6.75116 10.157742 3.69706s6.38707-7.71561 8.38784-3.69706c2.00077 4.01854 4.5402 1.44667 4.5402 1.44667"/><path d="m33.303587 448.97942c2.847247-2.08964 3.308963-2.25038 5.694496-.16074 2.385531 2.08965 4.078487-.32148 4.078487-.32148"/><path d="m45.38515 448.33646c3.61677 3.05409 3.46286.48222 7.4644.48222"/><path d="m33.534445 457.82023c.769526-5.14374 3.847631-1.28593 5.617541.96445 1.769912 2.25039 4.001534-3.53632 8.233934-1.76816 4.23239 1.76816 4.61715 2.57187 6.69487.16074"/></g></g><g transform="matrix(.555556 0 0 .555556 282.3791 -94.5757)"><path d="m28 415.36218h35v51h-35z" fill="#ffffc2" fill-rule="evenodd"/><g fill="none"><path d="m33.380539 437.88823c2.9242 4.983 9.003461-4.66151 6.002308-5.30448-3.001155-.64297-3.155061 6.26893-.384764 6.10819 2.770296-.16074 8.233927-3.37558 8.233927-3.37558s1.23124 5.78671 4.3863 3.37558"/><path d="m32.457108 423.26072c2.770295-2.57187 6.233162 6.75116 10.157742 3.69706s6.38707-7.71561 8.38784-3.69706c2.00077 4.01854 4.5402 1.44667 4.5402 1.44667"/><path d="m33.303587 448.97942c2.847247-2.08964 3.308963-2.25038 5.694496-.16074 2.385531 2.08965 4.078487-.32148 4.078487-.32148"/><path d="m45.38515 448.33646c3.61677 3.05409 3.46286.48222 7.4644.48222"/><path d="m33.534445 457.82023c.769526-5.14374 3.847631-1.28593 5.617541.96445 1.769912 2.25039 4.001534-3.53632 8.233934-1.76816 4.23239 1.76816 4.61715 2.57187 6.69487.16074"/></g></g><g transform="matrix(.555556 0 0 .555556 406.2075 -101.5757)"><path d="m28 415.36218h35v51h-35z" fill="#ffffc2" fill-rule="evenodd"/><g fill="none"><path d="m33.380539 437.88823c2.9242 4.983 9.003461-4.66151 6.002308-5.30448-3.001155-.64297-3.155061 6.26893-.384764 6.10819 2.770296-.16074 8.233927-3.37558 8.233927-3.37558s1.23124 5.78671 4.3863 3.37558"/><path d="m32.457108 423.26072c2.770295-2.57187 6.233162 6.75116 10.157742 3.69706s6.38707-7.71561 8.38784-3.69706c2.00077 4.01854 4.5402 1.44667 4.5402 1.44667"/><path d="m33.303587 448.97942c2.847247-2.08964 3.308963-2.25038 5.694496-.16074 2.385531 2.08965 4.078487-.32148 4.078487-.32148"/><path d="m45.38515 448.33646c3.61677 3.05409 3.46286.48222 7.4644.48222"/><path d="m33.534445 457.82023c.769526-5.14374 3.847631-1.28593 5.617541.96445 1.769912 2.25039 4.001534-3.53632 8.233934-1.76816 4.23239 1.76816 4.61715 2.57187 6.69487.16074"/></g></g><g transform="matrix(.555556 0 0 .555556 514.3497 -101.1615)"><path d="m28 415.36218h35v51h-35z" fill="#ffffc2" fill-rule="evenodd"/><g fill="none"><path d="m33.380539 437.88823c2.9242 4.983 9.003461-4.66151 6.002308-5.30448-3.001155-.64297-3.155061 6.26893-.384764 6.10819 2.770296-.16074 8.233927-3.37558 8.233927-3.37558s1.23124 5.78671 4.3863 3.37558"/><path d="m32.457108 423.26072c2.770295-2.57187 6.233162 6.75116 10.157742 3.69706s6.38707-7.71561 8.38784-3.69706c2.00077 4.01854 4.5402 1.44667 4.5402 1.44667"/><path d="m33.303587 448.97942c2.847247-2.08964 3.308963-2.25038 5.694496-.16074 2.385531 2.08965 4.078487-.32148 4.078487-.32148"/><path d="m45.38515 448.33646c3.61677 3.05409 3.46286.48222 7.4644.48222"/><path d="m33.534445 457.82023c.769526-5.14374 3.847631-1.28593 5.617541.96445 1.769912 2.25039 4.001534-3.53632 8.233934-1.76816 4.23239 1.76816 4.61715 2.57187 6.69487.16074"/></g></g><g transform="matrix(.555556 0 0 .555556 281.3791 -152.5757)"><path d="m28 415.36218h35v51h-35z" fill="#ffffc2" fill-rule="evenodd"/><g fill="none"><path d="m33.380539 437.88823c2.9242 4.983 9.003461-4.66151 6.002308-5.30448-3.001155-.64297-3.155061 6.26893-.384764 6.10819 2.770296-.16074 8.233927-3.37558 8.233927-3.37558s1.23124 5.78671 4.3863 3.37558"/><path d="m32.457108 423.26072c2.770295-2.57187 6.233162 6.75116 10.157742 3.69706s6.38707-7.71561 8.38784-3.69706c2.00077 4.01854 4.5402 1.44667 4.5402 1.44667"/><path d="m33.303587 448.97942c2.847247-2.08964 3.308963-2.25038 5.694496-.16074 2.385531 2.08965 4.078487-.32148 4.078487-.32148"/><path d="m45.38515 448.33646c3.61677 3.05409 3.46286.48222 7.4644.48222"/><path d="m33.534445 457.82023c.769526-5.14374 3.847631-1.28593 5.617541.96445 1.769912 2.25039 4.001534-3.53632 8.233934-1.76816 4.23239 1.76816 4.61715 2.57187 6.69487.16074"/></g></g><g transform="matrix(.555556 0 0 .555556 75.37905 19.4243)"><path d="m28 415.36218h35v51h-35z" fill="#ffffc2" fill-rule="evenodd"/><g fill="none"><path d="m33.380539 437.88823c2.9242 4.983 9.003461-4.66151 6.002308-5.30448-3.001155-.64297-3.155061 6.26893-.384764 6.10819 2.770296-.16074 8.233927-3.37558 8.233927-3.37558s1.23124 5.78671 4.3863 3.37558"/><path d="m32.457108 423.26072c2.770295-2.57187 6.233162 6.75116 10.157742 3.69706s6.38707-7.71561 8.38784-3.69706c2.00077 4.01854 4.5402 1.44667 4.5402 1.44667"/><path d="m33.303587 448.97942c2.847247-2.08964 3.308963-2.25038 5.694496-.16074 2.385531 2.08965 4.078487-.32148 4.078487-.32148"/><path d="m45.38515 448.33646c3.61677 3.05409 3.46286.48222 7.4644.48222"/><path d="m33.534445 457.82023c.769526-5.14374 3.847631-1.28593 5.617541.96445 1.769912 2.25039 4.001534-3.53632 8.233934-1.76816 4.23239 1.76816 4.61715 2.57187 6.69487.16074"/></g></g><g transform="matrix(.555556 0 0 .555556 109.3791 13.4243)"><path d="m28 415.36218h35v51h-35z" fill="#ffffc2" fill-rule="evenodd"/><g fill="none"><path d="m33.380539 437.88823c2.9242 4.983 9.003461-4.66151 6.002308-5.30448-3.001155-.64297-3.155061 6.26893-.384764 6.10819 2.770296-.16074 8.233927-3.37558 8.233927-3.37558s1.23124 5.78671 4.3863 3.37558"/><path d="m32.457108 423.26072c2.770295-2.57187 6.233162 6.75116 10.157742 3.69706s6.38707-7.71561 8.38784-3.69706c2.00077 4.01854 4.5402 1.44667 4.5402 1.44667"/><path d="m33.303587 448.97942c2.847247-2.08964 3.308963-2.25038 5.694496-.16074 2.385531 2.08965 4.078487-.32148 4.078487-.32148"/><path d="m45.38515 448.33646c3.61677 3.05409 3.46286.48222 7.4644.48222"/><path d="m33.534445 457.82023c.769526-5.14374 3.847631-1.28593 5.617541.96445 1.769912 2.25039 4.001534-3.53632 8.233934-1.76816 4.23239 1.76816 4.61715 2.57187 6.69487.16074"/></g></g><g transform="matrix(.555556 0 0 .555556 146.3791 13.4243)"><path d="m28 415.36218h35v51h-35z" fill="#ffffc2" fill-rule="evenodd"/><g fill="none"><path d="m33.380539 437.88823c2.9242 4.983 9.003461-4.66151 6.002308-5.30448-3.001155-.64297-3.155061 6.26893-.384764 6.10819 2.770296-.16074 8.233927-3.37558 8.233927-3.37558s1.23124 5.78671 4.3863 3.37558"/><path d="m32.457108 423.26072c2.770295-2.57187 6.233162 6.75116 10.157742 3.69706s6.38707-7.71561 8.38784-3.69706c2.00077 4.01854 4.5402 1.44667 4.5402 1.44667"/><path d="m33.303587 448.97942c2.847247-2.08964 3.308963-2.25038 5.694496-.16074 2.385531 2.08965 4.078487-.32148 4.078487-.32148"/><path d="m45.38515 448.33646c3.61677 3.05409 3.46286.48222 7.4644.48222"/><path d="m33.534445 457.82023c.769526-5.14374 3.847631-1.28593 5.617541.96445 1.769912 2.25039 4.001534-3.53632 8.233934-1.76816 4.23239 1.76816 4.61715 2.57187 6.69487.16074"/></g></g><g transform="matrix(.555556 0 0 .555556 188.3791 18.4243)"><path d="m28 415.36218h35v51h-35z" fill="#ffffc2" fill-rule="evenodd"/><g fill="none"><path d="m33.380539 437.88823c2.9242 4.983 9.003461-4.66151 6.002308-5.30448-3.001155-.64297-3.155061 6.26893-.384764 6.10819 2.770296-.16074 8.233927-3.37558 8.233927-3.37558s1.23124 5.78671 4.3863 3.37558"/><path d="m32.457108 423.26072c2.770295-2.57187 6.233162 6.75116 10.157742 3.69706s6.38707-7.71561 8.38784-3.69706c2.00077 4.01854 4.5402 1.44667 4.5402 1.44667"/><path d="m33.303587 448.97942c2.847247-2.08964 3.308963-2.25038 5.694496-.16074 2.385531 2.08965 4.078487-.32148 4.078487-.32148"/><path d="m45.38515 448.33646c3.61677 3.05409 3.46286.48222 7.4644.48222"/><path d="m33.534445 457.82023c.769526-5.14374 3.847631-1.28593 5.617541.96445 1.769912 2.25039 4.001534-3.53632 8.233934-1.76816 4.23239 1.76816 4.61715 2.57187 6.69487.16074"/></g></g><g transform="matrix(.555556 0 0 .555556 250.3791 11.4243)"><path d="m28 415.36218h35v51h-35z" fill="#ffffc2" fill-rule="evenodd"/><g fill="none"><path d="m33.380539 437.88823c2.9242 4.983 9.003461-4.66151 6.002308-5.30448-3.001155-.64297-3.155061 6.26893-.384764 6.10819 2.770296-.16074 8.233927-3.37558 8.233927-3.37558s1.23124 5.78671 4.3863 3.37558"/><path d="m32.457108 423.26072c2.770295-2.57187 6.233162 6.75116 10.157742 3.69706s6.38707-7.71561 8.38784-3.69706c2.00077 4.01854 4.5402 1.44667 4.5402 1.44667"/><path d="m33.303587 448.97942c2.847247-2.08964 3.308963-2.25038 5.694496-.16074 2.385531 2.08965 4.078487-.32148 4.078487-.32148"/><path d="m45.38515 448.33646c3.61677 3.05409 3.46286.48222 7.4644.48222"/><path d="m33.534445 457.82023c.769526-5.14374 3.847631-1.28593 5.617541.96445 1.769912 2.25039 4.001534-3.53632 8.233934-1.76816 4.23239 1.76816 4.61715 2.57187 6.69487.16074"/></g></g><g transform="matrix(.555556 0 0 .555556 283.3791 9.4243)"><path d="m28 415.36218h35v51h-35z" fill="#ffffc2" fill-rule="evenodd"/><g fill="none"><path d="m33.380539 437.88823c2.9242 4.983 9.003461-4.66151 6.002308-5.30448-3.001155-.64297-3.155061 6.26893-.384764 6.10819 2.770296-.16074 8.233927-3.37558 8.233927-3.37558s1.23124 5.78671 4.3863 3.37558"/><path d="m32.457108 423.26072c2.770295-2.57187 6.233162 6.75116 10.157742 3.69706s6.38707-7.71561 8.38784-3.69706c2.00077 4.01854 4.5402 1.44667 4.5402 1.44667"/><path d="m33.303587 448.97942c2.847247-2.08964 3.308963-2.25038 5.694496-.16074 2.385531 2.08965 4.078487-.32148 4.078487-.32148"/><path d="m45.38515 448.33646c3.61677 3.05409 3.46286.48222 7.4644.48222"/><path d="m33.534445 457.82023c.769526-5.14374 3.847631-1.28593 5.617541.96445 1.769912 2.25039 4.001534-3.53632 8.233934-1.76816 4.23239 1.76816 4.61715 2.57187 6.69487.16074"/></g></g><g transform="matrix(.555556 0 0 .555556 323.3791 12.4243)"><path d="m28 415.36218h35v51h-35z" fill="#ffffc2" fill-rule="evenodd"/><g fill="none"><path d="m33.380539 437.88823c2.9242 4.983 9.003461-4.66151 6.002308-5.30448-3.001155-.64297-3.155061 6.26893-.384764 6.10819 2.770296-.16074 8.233927-3.37558 8.233927-3.37558s1.23124 5.78671 4.3863 3.37558"/><path d="m32.457108 423.26072c2.770295-2.57187 6.233162 6.75116 10.157742 3.69706s6.38707-7.71561 8.38784-3.69706c2.00077 4.01854 4.5402 1.44667 4.5402 1.44667"/><path d="m33.303587 448.97942c2.847247-2.08964 3.308963-2.25038 5.694496-.16074 2.385531 2.08965 4.078487-.32148 4.078487-.32148"/><path d="m45.38515 448.33646c3.61677 3.05409 3.46286.48222 7.4644.48222"/><path d="m33.534445 457.82023c.769526-5.14374 3.847631-1.28593 5.617541.96445 1.769912 2.25039 4.001534-3.53632 8.233934-1.76816 4.23239 1.76816 4.61715 2.57187 6.69487.16074"/></g></g><g transform="matrix(.555556 0 0 .555556 349.3791 12.4243)"><path d="m28 415.36218h35v51h-35z" fill="#ffffc2" fill-rule="evenodd"/><g fill="none"><path d="m33.380539 437.88823c2.9242 4.983 9.003461-4.66151 6.002308-5.30448-3.001155-.64297-3.155061 6.26893-.384764 6.10819 2.770296-.16074 8.233927-3.37558 8.233927-3.37558s1.23124 5.78671 4.3863 3.37558"/><path d="m32.457108 423.26072c2.770295-2.57187 6.233162 6.75116 10.157742 3.69706s6.38707-7.71561 8.38784-3.69706c2.00077 4.01854 4.5402 1.44667 4.5402 1.44667"/><path d="m33.303587 448.97942c2.847247-2.08964 3.308963-2.25038 5.694496-.16074 2.385531 2.08965 4.078487-.32148 4.078487-.32148"/><path d="m45.38515 448.33646c3.61677 3.05409 3.46286.48222 7.4644.48222"/><path d="m33.534445 457.82023c.769526-5.14374 3.847631-1.28593 5.617541.96445 1.769912 2.25039 4.001534-3.53632 8.233934-1.76816 4.23239 1.76816 4.61715 2.57187 6.69487.16074"/></g></g><g transform="matrix(.555556 0 0 .555556 408.3791 5.4243)"><path d="m28 415.36218h35v51h-35z" fill="#ffffc2" fill-rule="evenodd"/><g fill="none"><path d="m33.380539 437.88823c2.9242 4.983 9.003461-4.66151 6.002308-5.30448-3.001155-.64297-3.155061 6.26893-.384764 6.10819 2.770296-.16074 8.233927-3.37558 8.233927-3.37558s1.23124 5.78671 4.3863 3.37558"/><path d="m32.457108 423.26072c2.770295-2.57187 6.233162 6.75116 10.157742 3.69706s6.38707-7.71561 8.38784-3.69706c2.00077 4.01854 4.5402 1.44667 4.5402 1.44667"/><path d="m33.303587 448.97942c2.847247-2.08964 3.308963-2.25038 5.694496-.16074 2.385531 2.08965 4.078487-.32148 4.078487-.32148"/><path d="m45.38515 448.33646c3.61677 3.05409 3.46286.48222 7.4644.48222"/><path d="m33.534445 457.82023c.769526-5.14374 3.847631-1.28593 5.617541.96445 1.769912 2.25039 4.001534-3.53632 8.233934-1.76816 4.23239 1.76816 4.61715 2.57187 6.69487.16074"/></g></g><g transform="matrix(.555556 0 0 .555556 455.3791 15.4243)"><path d="m28 415.36218h35v51h-35z" fill="#ffffc2" fill-rule="evenodd"/><g fill="none"><path d="m33.380539 437.88823c2.9242 4.983 9.003461-4.66151 6.002308-5.30448-3.001155-.64297-3.155061 6.26893-.384764 6.10819 2.770296-.16074 8.233927-3.37558 8.233927-3.37558s1.23124 5.78671 4.3863 3.37558"/><path d="m32.457108 423.26072c2.770295-2.57187 6.233162 6.75116 10.157742 3.69706s6.38707-7.71561 8.38784-3.69706c2.00077 4.01854 4.5402 1.44667 4.5402 1.44667"/><path d="m33.303587 448.97942c2.847247-2.08964 3.308963-2.25038 5.694496-.16074 2.385531 2.08965 4.078487-.32148 4.078487-.32148"/><path d="m45.38515 448.33646c3.61677 3.05409 3.46286.48222 7.4644.48222"/><path d="m33.534445 457.82023c.769526-5.14374 3.847631-1.28593 5.617541.96445 1.769912 2.25039 4.001534-3.53632 8.233934-1.76816 4.23239 1.76816 4.61715 2.57187 6.69487.16074"/></g></g><g transform="matrix(.555556 0 0 .555556 493.3791 11.4243)"><path d="m28 415.36218h35v51h-35z" fill="#ffffc2" fill-rule="evenodd"/><g fill="none"><path d="m33.380539 437.88823c2.9242 4.983 9.003461-4.66151 6.002308-5.30448-3.001155-.64297-3.155061 6.26893-.384764 6.10819 2.770296-.16074 8.233927-3.37558 8.233927-3.37558s1.23124 5.78671 4.3863 3.37558"/><path d="m32.457108 423.26072c2.770295-2.57187 6.233162 6.75116 10.157742 3.69706s6.38707-7.71561 8.38784-3.69706c2.00077 4.01854 4.5402 1.44667 4.5402 1.44667"/><path d="m33.303587 448.97942c2.847247-2.08964 3.308963-2.25038 5.694496-.16074 2.385531 2.08965 4.078487-.32148 4.078487-.32148"/><path d="m45.38515 448.33646c3.61677 3.05409 3.46286.48222 7.4644.48222"/><path d="m33.534445 457.82023c.769526-5.14374 3.847631-1.28593 5.617541.96445 1.769912 2.25039 4.001534-3.53632 8.233934-1.76816 4.23239 1.76816 4.61715 2.57187 6.69487.16074"/></g></g><g transform="matrix(.555556 0 0 .555556 542.3791 11.4243)"><path d="m28 415.36218h35v51h-35z" fill="#ffffc2" fill-rule="evenodd"/><g fill="none"><path d="m33.380539 437.88823c2.9242 4.983 9.003461-4.66151 6.002308-5.30448-3.001155-.64297-3.155061 6.26893-.384764 6.10819 2.770296-.16074 8.233927-3.37558 8.233927-3.37558s1.23124 5.78671 4.3863 3.37558"/><path d="m32.457108 423.26072c2.770295-2.57187 6.233162 6.75116 10.157742 3.69706s6.38707-7.71561 8.38784-3.69706c2.00077 4.01854 4.5402 1.44667 4.5402 1.44667"/><path d="m33.303587 448.97942c2.847247-2.08964 3.308963-2.25038 5.694496-.16074 2.385531 2.08965 4.078487-.32148 4.078487-.32148"/><path d="m45.38515 448.33646c3.61677 3.05409 3.46286.48222 7.4644.48222"/><path d="m33.534445 457.82023c.769526-5.14374 3.847631-1.28593 5.617541.96445 1.769912 2.25039 4.001534-3.53632 8.233934-1.76816 4.23239 1.76816 4.61715 2.57187 6.69487.16074"/></g></g><g transform="matrix(.555556 0 0 .555556 591.3791 6.4243)"><path d="m28 415.36218h35v51h-35z" fill="#ffffc2" fill-rule="evenodd"/><g fill="none"><path d="m33.380539 437.88823c2.9242 4.983 9.003461-4.66151 6.002308-5.30448-3.001155-.64297-3.155061 6.26893-.384764 6.10819 2.770296-.16074 8.233927-3.37558 8.233927-3.37558s1.23124 5.78671 4.3863 3.37558"/><path d="m32.457108 423.26072c2.770295-2.57187 6.233162 6.75116 10.157742 3.69706s6.38707-7.71561 8.38784-3.69706c2.00077 4.01854 4.5402 1.44667 4.5402 1.44667"/><path d="m33.303587 448.97942c2.847247-2.08964 3.308963-2.25038 5.694496-.16074 2.385531 2.08965 4.078487-.32148 4.078487-.32148"/><path d="m45.38515 448.33646c3.61677 3.05409 3.46286.48222 7.4644.48222"/><path d="m33.534445 457.82023c.769526-5.14374 3.847631-1.28593 5.617541.96445 1.769912 2.25039 4.001534-3.53632 8.233934-1.76816 4.23239 1.76816 4.61715 2.57187 6.69487.16074"/></g></g><path d="m73.656854 121.34788c-20.619874 22.14604-37.807174 51.17073-42.797366 79.80841-4.697473 26.95784-12.925403 63.20401 6.830841 85.20036 20.194295 22.48407 54.319171 9.84399 81.485841 11.19893 30.99623 1.54593 32.14483-38.08085 31.22253-61.83864-1.06347-27.39402-3.87532-56.79948-13.28536-81.21369s-18.75618-61.88274-49.936923-45.20922c-5.371409 2.8723-9.398755 7.62804-13.519563 12.05385z" fill="none" stroke-dasharray="8 2" stroke-width="2"/><path d="m286.51565 70.52742c-6.42868 4.52855-9.85125 11.90192-12.94051 18.87999-5.3822 7.92445-1.54163 20.26111 7.38254 23.73769 7.66326 4.8156 17.02204 4.81935 25.75764 5.22532 8.15716-1.02645 17.05585-.55793 24.18908-5.31319 5.82701-4.05553 6.75355-11.97117 5.80138-18.48666-1.00592-8.43314-3.9741-16.46399-7.16514-24.28117-2.69779-3.84179-7.88678-3.60666-12.05883-3.56654-10.41927-.42902-21.11669.06474-30.96616 3.80456z" fill="none" stroke-dasharray="8 2" stroke-width="2"/><path d="m169.65685 116.34788c-13.6799 10.00789-11.05181 42.34392-4.20219 51.9429 6.84962 9.59897 34.75666 16.34578 44.68688 6.76616 9.93021-9.57962 8.94838-17.43766 9.3022-27.25144s-4.24517-20.17427-12.36425-26.16856-24.40242-14.81435-37.42264-5.28906z" fill="none" stroke-dasharray="8 2" stroke-width="2"/><path d="m340.65685 144.34788c-10.0101-8.26649-21.22228-19.34034-35.42704-16.69196-21.27965 3.13379-36.22446 23.8106-37.84474 44.41587-3.69499 20.64751-2.67236 42.46402-11.40402 61.96286-8.86929 35.48633 22.76384 73.99883 59.16074 72.9115 24.09137 2.52644 51.1494-1.04249 69.04303-18.8758 11.39764-11.00768 13.6704-28.41412 9.94257-43.23629-5.57569-38.60089-28.91915-71.40067-53.47054-100.48618z" fill="none" stroke-dasharray="8 2" stroke-width="2"/></g><text font-family="Bitstream Vera Sans" font-size="12" text-anchor="end" x="628.00928" y="480.67679"><tspan x="628.00928" y="480.67679">see also: RFC 1034 4.2:</tspan><tspan x="628.00928" y="495.67679">How the database is divided into zones.</tspan></text><path d="m476.58996 141.60862c-9.3513-10.67404-24.48341-17.74783-40.05724-20.14314-17.41088-2.67786-38.40476 5.1548-42.18979 23.74729-3.98389 19.56929 1.88607 39.31089 9.92408 57.08027 8.07622 17.85387 6.91609 38.4285 13.66398 56.84257 3.39151 9.25498.45146 22.37521 9.9104 28.59521 9.49188 6.24166 20.35909 9.67865 30.85736 13.61872 18.3008 6.86841 38.68999.49096 57.92169 2.2513 10.2135.93488 13.42147-13.42157 12.15482-22.9732-3.0783-23.21295 3.19391-48.32165-6.14756-70.95303-10.62311-25.73641-28.82324-48.4165-46.03774-68.06599z" fill="none" stroke="#000" stroke-dasharray="8 2" stroke-width="2"/><path d="m598.21233 135.95179c-14.81123-15.37571-37.61025-24.85124-58.85478-19.10718-17.81755 7.77732-23.14045 31.96199-14.46537 48.33181 8.41228 23.15356 17.74305 46.4247 19.81659 71.20334 3.62741 17.5152 7.90391 36.77626 21.92264 49.09427 14.47784 10.492 33.92328 9.08902 49.97143 3.43265 12.27753-1.71395 26.77458-6.95242 30.58008-20.10887 6.47275-20.39331-.9668-41.60199-7.96258-60.79785-9.69161-25.99341-23.14655-50.74206-41.00801-72.04817z" fill="none" stroke="#000" stroke-dasharray="8 2" stroke-width="2"/><path d="m171.65685 230.34788c-7.46516-2.14124-15.8195 4.58572-15.44171 12.31392-1.48094 12.13545.10963 24.35443-.39807 36.5251.46748 4.15615 5.37573 6.86652 9.21453 5.44725 5.9413-.3796 12.41423.58541 17.74532-2.68332 6.50995-3.91788 9.28051-12.23545 8.02393-19.501-.64203-7.91726-1.34587-15.85456-2.95444-23.64473-2.67685-6.10467-9.84217-8.99327-16.18956-8.45722z" fill="none" stroke="#000" stroke-dasharray="8 2" stroke-width="2"/><path d="m235.57563 249.8112c-2.47437-4.26701-7.65406-6.23347-9.68677-10.82679-3.21293-2.54274-7.62087-1.50552-11.14807-.27756-5.69868 1.74562-11.12929 4.59654-15.47332 8.71617-2.93559 5.48029-1.93358 11.86916-2.11048 17.82459.2355 5.17524.79851 10.3288 1.06225 15.50231 3.0791 2.72422 7.44315 1.76644 11.1862 2.13267 7.11868.0605 14.28241-.53457 21.19327-2.3056 2.5083-2.43573 1.41593-6.21847 2.33853-9.25978 1.22357-7.11954 2.30014-14.28208 2.63839-21.50601z" fill="none" stroke="#000" stroke-dasharray="8 2" stroke-width="2"/><path d="m409.37688 451.7732c4.26701-2.47438 6.23346-7.65407 10.8268-9.68678 2.54273-3.21293 1.50551-7.62085.27754-11.14805-1.74561-5.69869-4.59653-11.12931-8.71616-15.47333-5.4803-2.93559-11.86916-1.93358-17.82458-2.1105-5.17525.23552-10.32881.79853-15.50232 1.06227-2.72423 3.07909-1.76643 7.44315-2.13268 11.1862-.0605 7.11867.53458 14.28241 2.30561 21.19327 2.43572 2.50829 6.21847 1.41592 9.25977 2.33852 7.11955 1.22357 14.28209 2.30014 21.50602 2.6384z" fill="none" stroke="#000" stroke-dasharray="8 2" stroke-width="2"/><text font-family="Bitstream Vera Sans" font-size="32.721752" x="424.17792" y="439.94485"><tspan x="424.17792" y="439.94485">=</tspan></text><text font-family="Bitstream Vera Sans" font-size="12" x="455.65686" xml:space="preserve" y="424.34787"><tspan x="455.65686" y="424.34787"><tspan font-weight="bold">zone</tspan> of authority,</tspan><tspan x="455.65686" y="439.34787">managed by a <tspan font-weight="bold">name server</tspan></tspan></text><path d="m83.656854 432.34788 28.999996 49" fill="none" stroke="#000"/><path d="m83.656854 432.34788-34 49" fill="none" stroke="#000"/><g stroke="#000" transform="matrix(.555556 0 0 .555556 58.1608 182.3562)"><path d="m28 415.36218h35v51h-35z" fill="#ffffc2" fill-rule="evenodd"/><g fill="none"><path d="m33.380539 437.88823c2.9242 4.983 9.003461-4.66151 6.002308-5.30448-3.001155-.64297-3.155061 6.26893-.384764 6.10819 2.770296-.16074 8.233927-3.37558 8.233927-3.37558s1.23124 5.78671 4.3863 3.37558"/><path d="m32.457108 423.26072c2.770295-2.57187 6.233162 6.75116 10.157742 3.69706s6.38707-7.71561 8.38784-3.69706c2.00077 4.01854 4.5402 1.44667 4.5402 1.44667"/><path d="m33.303587 448.97942c2.847247-2.08964 3.308963-2.25038 5.694496-.16074 2.385531 2.08965 4.078487-.32148 4.078487-.32148"/><path d="m45.38515 448.33646c3.61677 3.05409 3.46286.48222 7.4644.48222"/><path d="m33.534445 457.82023c.769526-5.14374 3.847631-1.28593 5.617541.96445 1.769912 2.25039 4.001534-3.53632 8.233934-1.76816 4.23239 1.76816 4.61715 2.57187 6.69487.16074"/></g></g><text font-family="Bitstream Vera Sans" font-size="12" x="109.30865" y="423.00766"><tspan x="109.30865" y="423.00766">"delegated subzone"</tspan></text><text font-family="Bitstream Vera Sans" font-size="11.999987" transform="matrix(.462358 -.886693 .886693 .462358 0 0)" x="-294.9339" y="286.57416"><tspan x="-294.9339" y="286.57416">"zone delegation"</tspan></text><g stroke="#000" transform="matrix(.555556 0 0 .555556 24.37905 233.4243)"><path d="m28 415.36218h35v51h-35z" fill="#ffffc2" fill-rule="evenodd"/><g fill="none"><path d="m33.380539 437.88823c2.9242 4.983 9.003461-4.66151 6.002308-5.30448-3.001155-.64297-3.155061 6.26893-.384764 6.10819 2.770296-.16074 8.233927-3.37558 8.233927-3.37558s1.23124 5.78671 4.3863 3.37558"/><path d="m32.457108 423.26072c2.770295-2.57187 6.233162 6.75116 10.157742 3.69706s6.38707-7.71561 8.38784-3.69706c2.00077 4.01854 4.5402 1.44667 4.5402 1.44667"/><path d="m33.303587 448.97942c2.847247-2.08964 3.308963-2.25038 5.694496-.16074 2.385531 2.08965 4.078487-.32148 4.078487-.32148"/><path d="m45.38515 448.33646c3.61677 3.05409 3.46286.48222 7.4644.48222"/><path d="m33.534445 457.82023c.769526-5.14374 3.847631-1.28593 5.617541.96445 1.769912 2.25039 4.001534-3.53632 8.233934-1.76816 4.23239 1.76816 4.61715 2.57187 6.69487.16074"/></g></g><g stroke="#000" transform="matrix(.555556 0 0 .555556 82.37905 232.4243)"><path d="m28 415.36218h35v51h-35z" fill="#ffffc2" fill-rule="evenodd"/><g fill="none"><path d="m33.380539 437.88823c2.9242 4.983 9.003461-4.66151 6.002308-5.30448-3.001155-.64297-3.155061 6.26893-.384764 6.10819 2.770296-.16074 8.233927-3.37558 8.233927-3.37558s1.23124 5.78671 4.3863 3.37558"/><path d="m32.457108 423.26072c2.770295-2.57187 6.233162 6.75116 10.157742 3.69706s6.38707-7.71561 8.38784-3.69706c2.00077 4.01854 4.5402 1.44667 4.5402 1.44667"/><path d="m33.303587 448.97942c2.847247-2.08964 3.308963-2.25038 5.694496-.16074 2.385531 2.08965 4.078487-.32148 4.078487-.32148"/><path d="m45.38515 448.33646c3.61677 3.05409 3.46286.48222 7.4644.48222"/><path d="m33.534445 457.82023c.769526-5.14374 3.847631-1.28593 5.617541.96445 1.769912 2.25039 4.001534-3.53632 8.233934-1.76816 4.23239 1.76816 4.61715 2.57187 6.69487.16074"/></g></g><path d="m58.656854 416.34788c-9.411891 9.79148-15.975922 21.79611-22.851244 33.39167-4.274858 12.45191-5.516642 25.63195-8.077417 38.48015.18515 11.62897 11.978615 20.01933 22.984638 19.62187 14.193659 1.8055 30.54538.87311 44.826242.86347 11.942507-.8819 23.712397-4.16762 29.078277-15.91113 5.65147-13.49388 2.09345-28.82601-3.7922-41.60225-4.46473-8.8931-12.52612-15.09523-18.83568-22.52355-4.88162-8.07047-5.616626-17.67559-7.976185-26.61259-5.483105-11.60434-25.804267-10.40994-29.21484 2.22553-1.524968 4.22665-2.525603 9.04243-6.141591 12.06683z" fill="none" stroke="#000" stroke-dasharray="8 2" stroke-width="2"/><text font-family="Bitstream Vera Sans" font-size="8.778925" x="173.82043" xml:space="preserve" y="338.49643"><tspan x="173.82043" y="338.49643"><tspan font-weight="bold">NS RR</tspan> (&amp;quot;resource record&amp;quot;)</tspan><tspan x="173.82043" y="349.47009">names the nameserver</tspan><tspan x="173.82043" y="360.44376">authoritative for</tspan><tspan x="173.82043" y="371.41739">delegated subzone</tspan></text><path d="m173.65685 275.34788 7 53" fill="none" marker-start="url(#a)" stroke="#000" stroke-width=".5"/><text font-family="Bitstream Vera Sans" font-size="8.778925" x="144.65686" xml:space="preserve" y="447.34787"><tspan x="144.65686" y="447.34787">When a system administrator</tspan><tspan x="144.65686" y="458.32153">wants to let another administrator</tspan><tspan x="144.65686" y="469.2952">manage a part of a zone, the first</tspan><tspan x="144.65686" y="480.26883">administrator's nameserver <tspan font-family="Bitstream Vera Sans" font-size="8.778925" font-weight="bold">delegates</tspan></tspan><tspan x="144.65686" y="491.24249">part of the zone to another</tspan><tspan x="144.65686" y="502.21616">nameserver.</tspan></text></svg>