<svg height="340" width="370" xmlns="http://www.w3.org/2000/svg" xmlns:xlink="http://www.w3.org/1999/xlink"><linearGradient id="a"><stop offset="0" stop-color="#dde1d9"/><stop offset="1" stop-color="#cacdc6"/></linearGradient><linearGradient id="b"><stop offset="0" stop-color="#fff"/><stop offset="1" stop-color="#fff" stop-opacity="0"/></linearGradient><linearGradient id="c"><stop offset="0"/><stop offset="1" stop-opacity="0"/></linearGradient><linearGradient id="d" gradientTransform="scale(2.309851 .432928)" gradientUnits="userSpaceOnUse" x1="8.113424" x2="8.113423" y1="88.509071" y2="100.20015"><stop offset="0" stop-color="#9d9d9d"/><stop offset="1" stop-color="#b9b9b9"/></linearGradient><linearGradient id="e" gradientTransform="matrix(2.143634 0 0 .466498 1 -.508826)" gradientUnits="userSpaceOnUse" x1="13.62871" x2="8.648501" y1="101.2846" y2="74.098007"><stop offset="0" stop-color="#f9fff5"/><stop offset="1" stop-color="#f9fff5" stop-opacity="0"/></linearGradient><linearGradient id="f" gradientUnits="userSpaceOnUse" x1="34.300991" x2="35.520542" y1="3.938409" y2="3.84511"><stop offset="0" stop-color="#909090"/><stop offset="1" stop-color="#bebebe" stop-opacity="0"/></linearGradient><radialGradient id="g" cx="12.57571" cy="67.501709" gradientTransform="scale(1.925808 .519262)" gradientUnits="userSpaceOnUse" r="8.766279" xlink:href="#c"/><linearGradient id="h" gradientTransform="scale(1.492875 .669848)" gradientUnits="userSpaceOnUse" x1="-23.8857" x2="-23.8857" y1="49.953003" y2="44.878883"><stop offset="0" stop-color="#d8dfd6"/><stop offset="1" stop-color="#d8dfd6" stop-opacity="0"/></linearGradient><linearGradient id="i" gradientTransform="scale(1.816345 .550556)" gradientUnits="userSpaceOnUse" x1="12.206709" x2="12.127711" y1="53.535141" y2="64.892525"><stop offset="0" stop-color="#585956"/><stop offset="1" stop-color="#bbbeb8"/></linearGradient><linearGradient id="j" gradientTransform="matrix(1.129863 0 0 .885063 -1.625 -1.304372)" gradientUnits="userSpaceOnUse" x1="8.611624" x2="34.784473" xlink:href="#a" y1="7.229358" y2="33.339787"/><linearGradient id="k" gradientTransform="scale(1.104397 .905471)" gradientUnits="userSpaceOnUse" x1="10.390738" x2="32.536823" y1="5.381774" y2="31.246054"><stop offset="0" stop-color="#8f8f8f"/><stop offset="1" stop-color="#494949"/></linearGradient><linearGradient id="l" gradientTransform="matrix(1.174139 0 0 .945431 .721825 -1.331524)" gradientUnits="userSpaceOnUse" x1="19.150396" x2="16.315819" y1="32.622238" y2="8.866623"><stop offset="0" stop-color="#5b5b97"/><stop offset="1" stop-color="#1b1b43"/></linearGradient><linearGradient id="m" gradientTransform="matrix(5.705159 0 0 .17528 1 -.679373)" gradientUnits="userSpaceOnUse" x1="3.706998" x2="3.706997" xlink:href="#c" y1="171.29134" y2="162.45061"/><linearGradient id="n" gradientTransform="matrix(1.108069 0 0 .902471 1 1)" gradientUnits="userSpaceOnUse" x1="17.698339" x2="34.974548" xlink:href="#b" y1="13.004725" y2="55.200756"/><linearGradient id="o" gradientTransform="matrix(1.238977 0 0 .895955 .590553 -1.331524)" gradientUnits="userSpaceOnUse" x1="11.492236" x2="17.199417" y1="1.653758" y2="26.729263"><stop offset="0" stop-color="#fff"/><stop offset="1" stop-color="#fcfcff" stop-opacity="0"/></linearGradient><linearGradient id="p" gradientTransform="scale(1.129863 .885063)" gradientUnits="userSpaceOnUse" x1="18.316999" x2="18.176752" xlink:href="#a" y1="48.643234" y2="52.536461"/><radialGradient id="q" cx="23.536554" cy="38.706596" gradientTransform="matrix(1 0 0 .394366 0 23.44202)" gradientUnits="userSpaceOnUse" r="14.344166" xlink:href="#c"/><linearGradient id="r" gradientUnits="userSpaceOnUse" x1="24.349751" x2="23.233508" y1="34.868017" y2="10.422326"><stop offset="0" stop-color="#d2d2d2"/><stop offset="1" stop-color="#dfdfdf"/></linearGradient><linearGradient id="s" gradientTransform="matrix(.955932 0 0 1 .869911 0)" gradientUnits="userSpaceOnUse" x1="27.324621" x2="22.311644" xlink:href="#b" y1="26.887815" y2="26.7868"/><linearGradient id="t" gradientUnits="userSpaceOnUse" x1="19.071575" x2="19.071575" xlink:href="#b" y1="39.918777" y2="30.928421"/><linearGradient id="u" gradientUnits="userSpaceOnUse" x1="21.071575" x2="21.071575" xlink:href="#b" y1="39.918777" y2="30.928421"/><linearGradient id="v" gradientUnits="userSpaceOnUse" x1="23.071575" x2="23.071575" xlink:href="#b" y1="39.918777" y2="30.928421"/><linearGradient id="w" gradientUnits="userSpaceOnUse" x1="25.071575" x2="25.071575" xlink:href="#b" y1="39.918777" y2="30.928421"/><linearGradient id="x" gradientUnits="userSpaceOnUse" x1="27.07161" x2="27.07161" xlink:href="#b" y1="39.918777" y2="30.928421"/><linearGradient id="y" gradientUnits="userSpaceOnUse" x1="29.07161" x2="29.07161" xlink:href="#b" y1="39.918777" y2="30.928421"/><linearGradient id="z" gradientUnits="userSpaceOnUse" x1="17.98071" x2="17.98071" xlink:href="#c" y1="39.918777" y2="30.928421"/><linearGradient id="A" gradientUnits="userSpaceOnUse" x1="19.98071" x2="19.98071" xlink:href="#c" y1="39.918777" y2="30.928421"/><linearGradient id="B" gradientUnits="userSpaceOnUse" x1="21.98071" x2="21.98071" xlink:href="#c" y1="39.918777" y2="30.928421"/><linearGradient id="C" gradientUnits="userSpaceOnUse" x1="23.98071" x2="23.98071" xlink:href="#c" y1="39.918777" y2="30.928421"/><linearGradient id="D" gradientUnits="userSpaceOnUse" x1="25.980705" x2="25.980705" xlink:href="#c" y1="39.918777" y2="30.928421"/><linearGradient id="E" gradientUnits="userSpaceOnUse" x1="27.98079" x2="27.98079" xlink:href="#c" y1="39.918777" y2="30.928421"/><g transform="translate(-83.73108 -136.0027)"><g transform="matrix(.533853 0 0 .533853 248.8029 448.1709)"><path d="m41.10058 35.051105a16.882174 4.552 0 1 1 -33.7643469 0 16.882174 4.552 0 1 1 33.7643469 0z" fill="url(#g)" fill-rule="evenodd" transform="matrix(1 0 0 1.368932 -1.978553 -13.61713)"/><path d="m-26.263968 29.716238a9.3944187 3.939595 0 1 1 -18.788837 0 9.3944187 3.939595 0 1 1 18.788837 0z" fill="#adb0aa" fill-rule="evenodd" stroke="#4b4d4a" transform="translate(57.53339 3.203427)"/><path d="m-26.263968 29.716238a9.3944187 3.939595 0 1 1 -18.788837 0 9.3944187 3.939595 0 1 1 18.788837 0z" fill="none" stroke="#7b7f7a" transform="matrix(.940273 0 0 .940273 55.40361 4.271194)"/><path d="m-26.263968 29.716238a9.3944187 3.939595 0 1 1 -18.788837 0 9.3944187 3.939595 0 1 1 18.788837 0z" fill="none" stroke="url(#h)" stroke-width=".680653" transform="matrix(.940273 0 0 .940273 55.40361 3.521194)"/><path d="m25.6875 28.766243-.0625 1s4.324108 3.599166 9 4.202507c2.337946.30167 4.753675.702412 6.75 1.1875s3.588356 1.119606 4.125 1.65625c.310411.310411.451063.573639.5.78125s.038217.354815-.09375.5625c-.263933.41537-1.079857.967652-2.46875 1.40625-2.777785.877195-7.720424 1.4375-14.5625 1.4375v1c6.895998 0 11.863665-.527671 14.84375-1.46875 1.490042-.47054 2.524942-1.015687 3.03125-1.8125.253154-.398406.357321-.888449.25-1.34375s-.384555-.884555-.78125-1.28125c-.87757-.87757-2.536838-1.40644-4.59375-1.90625s-4.515736-.914329-6.875-1.21875c-4.718527-.608842-9.0625-4.202507-9.0625-4.202507z" fill="#d0d0d0" fill-rule="evenodd" stroke="#979797" stroke-linejoin="round" stroke-width=".4"/><path d="m41.10058 35.051105a16.882174 4.552 0 1 1 -33.7643469 0 16.882174 4.552 0 1 1 33.7643469 0z" fill="url(#g)" fill-rule="evenodd" transform="matrix(1 0 0 1.368932 -1.978553 -19.02126)"/><path d="m17.472397 30.703611h9.039673v2.740039h-9.039673z" fill="url(#i)" fill-rule="evenodd"/><path d="m7.0809024 1.6956221h29.5881946c.911342 0 1.624147.5834818 1.666752 1.401587l1.332044 25.5781139c.058209 1.117735-.901056 2.020305-2.020305 2.020305h-31.545176c-1.1192491 0-2.078514-.90257-2.0203052-2.020305l1.3320438-25.5781139c.0402837-.7735346.5475027-1.401587 1.6667518-1.401587z" fill="url(#j)" fill-rule="evenodd" stroke="url(#k)"/><path d="m8.4105348 4.3058272-1.242195 22.0453168h27.6503892l-1.335017-21.9518882z" fill="url(#l)" fill-rule="evenodd" stroke="#000079" stroke-linejoin="round" stroke-width=".5"/><path d="m6.1774331 28.735789h31.4284769" fill="none" stroke="url(#m)" stroke-linecap="round" stroke-opacity=".248408" stroke-width=".996181"/><path d="m6.9145985 2.7063396 29.8455025-.0378013c.283697-.0003593.559302.2372498.582105.6525438l1.361892 24.8032479c.058039 1.057031-.539749 1.785871-1.598371 1.785871h-30.5239687c-1.0586228 0-1.5930144-.728791-1.5358714-1.785871l1.3240904-24.4941667c.0386959-.7158307.1663854-.9233446.5446212-.9238237z" fill="none" stroke="url(#n)" stroke-opacity=".700637"/><g fill-rule="evenodd"><path d="m8.7115364 4.7463626-.8025295 17.8703304c11.0446381-2.40063 11.4214631-10.492199 25.1540321-13.1467504l-.161472-4.6575159z" fill="url(#o)" opacity=".531429"/><path d="m41.10058 35.051105a16.882174 4.552 0 1 1 -33.7643469 0 16.882174 4.552 0 1 1 33.7643469 0z" fill="url(#g)" transform="matrix(1.264398 0 0 1.291262 -6.216332 -4.000423)"/><path d="m6.4621839 36.817452h31.0024061c1.119249 0 .977355.271438 1.092227.612846l2.834646 8.42481c.114872.341409.027022.612846-1.092227.612846h-36.6716978c-1.1192491 0-1.2070995-.271437-1.0922275-.612846l2.8346457-8.42481c.114872-.341409-.0270216-.612846 1.0922275-.612846z" fill="url(#p)" stroke="url(#k)"/><path d="m6.3916892 38.829113-1.7677669 5.126525h5.4800777l.53033-2.032932h14.849242l.549679 2.075114h6.167835l-1.679378-5.168707z" fill="#7a7d77"/><path d="m11.076272 42.27626-.441942 1.679379h14.760854l-.441942-1.767767z" fill="#777874"/><path d="m37.592776 38.829114 1.679379 5.038136-5.480078-.088389-1.502602-4.861359 5.303301-.088388z" fill="#777a75"/><path d="m37.592776 38.298786 1.679379 5.038136-5.480078-.088389-1.502602-4.861359 5.303301-.088388z" fill="url(#d)"/><path d="m6.3916892 38.210397-1.7677669 5.126525h5.4800777l.53033-2.032932h14.849242l.549679 2.075114h6.167835l-1.679378-5.168707z" fill="url(#d)"/><path d="m11.076272 41.745932-.441942 1.679379h14.760854l-.441942-1.767767-13.87697.088388z" fill="url(#d)"/></g><path d="m6.1278189 37.578116h31.8258151l2.637179 8.092563h-37.2610701l2.798076-8.092563z" fill="none" stroke="url(#e)" stroke-linejoin="round" stroke-width=".5"/><path d="m35.620504 3.9384086a.83968931.83968931 0 1 1 -1.679378 0 .83968931.83968931 0 1 1 1.679378 0z" fill="url(#f)" fill-rule="evenodd" transform="matrix(1.331237 0 0 .658449 -10.41933 2.853866)"/><path d="m35.620504 3.9384086a.83968931.83968931 0 1 1 -1.679378 0 .83968931.83968931 0 1 1 1.679378 0z" fill="url(#f)" fill-rule="evenodd" transform="matrix(1.331237 0 0 .658449 -10.30573 4.959651)"/><path d="m35.620504 3.9384086a.83968931.83968931 0 1 1 -1.679378 0 .83968931.83968931 0 1 1 1.679378 0z" fill="url(#f)" fill-rule="evenodd" transform="matrix(1.331237 0 0 .658449 -10.19213 6.959651)"/><path d="m35.620504 3.9384086a.83968931.83968931 0 1 1 -1.679378 0 .83968931.83968931 0 1 1 1.679378 0z" fill="url(#f)" fill-rule="evenodd" transform="matrix(1.331237 0 0 .658449 -10.07853 8.959651)"/><path d="m35.620504 3.9384086a.83968931.83968931 0 1 1 -1.679378 0 .83968931.83968931 0 1 1 1.679378 0z" fill="url(#f)" fill-rule="evenodd" transform="matrix(1.331237 0 0 .658449 -9.96493 10.95965)"/><path d="m20 27.317666h.281716c.083765.000001.147985.018664.19266.05599.044969.037034.067453.089938.067454.158714-.000001.06907-.022485.122268-.067454.159595-.044675.037033-.108895.05555-.19266.05555h-.111981v.22837h-.169735zm.169735.123003v.183843h.093905c.032918 0 .058342-.007936.076271-.023807.017928-.016165.026893-.038943.026893-.068335 0-.029391-.008965-.052022-.026893-.067894-.017929-.015871-.043353-.023807-.076271-.023807zm.792244-.011904c-.051729.000001-.091848.019105-.120358.057313-.028509.03821-.042764.091996-.042764.161359 0 .06907.014255.122709.042764.160918.02851.038209.068629.057313.120358.057313.052022 0 .092288-.019104.120799-.057313.028509-.038209.042763-.091848.042764-.160918-.000001-.069363-.014255-.123149-.042764-.161359-.028511-.038208-.068777-.057312-.120799-.057313m0-.123003c.105808.000001.188692.030274.248651.09082.059958.060546.089937.144165.089938.250855-.000001.106397-.02998.189868-.089938.250414-.059959.060547-.142843.09082-.248651.09082-.105515 0-.188399-.030273-.248651-.09082-.059958-.060546-.089937-.144017-.089937-.250414 0-.10669.029979-.190309.089937-.250855.060252-.060546.143136-.090819.248651-.09082m.466441.011904h.189574l.239393.451451v-.451451h.160918v.658219h-.189575l-.239392-.451451v.451451h-.160918zm.663069 0h.185606l.149896.234543.149896-.234543h.186048l-.250856.380912v.277307h-.169735v-.277307z" fill="#4a4a4a"/></g><g transform="matrix(.533853 0 0 .533853 177.5999 416.5346)"><path d="m41.10058 35.051105a16.882174 4.552 0 1 1 -33.7643469 0 16.882174 4.552 0 1 1 33.7643469 0z" fill="url(#g)" fill-rule="evenodd" transform="matrix(1 0 0 1.368932 -1.978553 -13.61713)"/><path d="m-26.263968 29.716238a9.3944187 3.939595 0 1 1 -18.788837 0 9.3944187 3.939595 0 1 1 18.788837 0z" fill="#adb0aa" fill-rule="evenodd" stroke="#4b4d4a" transform="translate(57.53339 3.203427)"/><path d="m-26.263968 29.716238a9.3944187 3.939595 0 1 1 -18.788837 0 9.3944187 3.939595 0 1 1 18.788837 0z" fill="none" stroke="#7b7f7a" transform="matrix(.940273 0 0 .940273 55.40361 4.271194)"/><path d="m-26.263968 29.716238a9.3944187 3.939595 0 1 1 -18.788837 0 9.3944187 3.939595 0 1 1 18.788837 0z" fill="none" stroke="url(#h)" stroke-width=".680653" transform="matrix(.940273 0 0 .940273 55.40361 3.521194)"/><path d="m25.6875 28.766243-.0625 1s4.324108 3.599166 9 4.202507c2.337946.30167 4.753675.702412 6.75 1.1875s3.588356 1.119606 4.125 1.65625c.310411.310411.451063.573639.5.78125s.038217.354815-.09375.5625c-.263933.41537-1.079857.967652-2.46875 1.40625-2.777785.877195-7.720424 1.4375-14.5625 1.4375v1c6.895998 0 11.863665-.527671 14.84375-1.46875 1.490042-.47054 2.524942-1.015687 3.03125-1.8125.253154-.398406.357321-.888449.25-1.34375s-.384555-.884555-.78125-1.28125c-.87757-.87757-2.536838-1.40644-4.59375-1.90625s-4.515736-.914329-6.875-1.21875c-4.718527-.608842-9.0625-4.202507-9.0625-4.202507z" fill="#d0d0d0" fill-rule="evenodd" stroke="#979797" stroke-linejoin="round" stroke-width=".4"/><path d="m41.10058 35.051105a16.882174 4.552 0 1 1 -33.7643469 0 16.882174 4.552 0 1 1 33.7643469 0z" fill="url(#g)" fill-rule="evenodd" transform="matrix(1 0 0 1.368932 -1.978553 -19.02126)"/><path d="m17.472397 30.703611h9.039673v2.740039h-9.039673z" fill="url(#i)" fill-rule="evenodd"/><path d="m7.0809024 1.6956221h29.5881946c.911342 0 1.624147.5834818 1.666752 1.401587l1.332044 25.5781139c.058209 1.117735-.901056 2.020305-2.020305 2.020305h-31.545176c-1.1192491 0-2.078514-.90257-2.0203052-2.020305l1.3320438-25.5781139c.0402837-.7735346.5475027-1.401587 1.6667518-1.401587z" fill="url(#j)" fill-rule="evenodd" stroke="url(#k)"/><path d="m8.4105348 4.3058272-1.242195 22.0453168h27.6503892l-1.335017-21.9518882z" fill="url(#l)" fill-rule="evenodd" stroke="#000079" stroke-linejoin="round" stroke-width=".5"/><path d="m6.1774331 28.735789h31.4284769" fill="none" stroke="url(#m)" stroke-linecap="round" stroke-opacity=".248408" stroke-width=".996181"/><path d="m6.9145985 2.7063396 29.8455025-.0378013c.283697-.0003593.559302.2372498.582105.6525438l1.361892 24.8032479c.058039 1.057031-.539749 1.785871-1.598371 1.785871h-30.5239687c-1.0586228 0-1.5930144-.728791-1.5358714-1.785871l1.3240904-24.4941667c.0386959-.7158307.1663854-.9233446.5446212-.9238237z" fill="none" stroke="url(#n)" stroke-opacity=".700637"/><g fill-rule="evenodd"><path d="m8.7115364 4.7463626-.8025295 17.8703304c11.0446381-2.40063 11.4214631-10.492199 25.1540321-13.1467504l-.161472-4.6575159z" fill="url(#o)" opacity=".531429"/><path d="m41.10058 35.051105a16.882174 4.552 0 1 1 -33.7643469 0 16.882174 4.552 0 1 1 33.7643469 0z" fill="url(#g)" transform="matrix(1.264398 0 0 1.291262 -6.216332 -4.000423)"/><path d="m6.4621839 36.817452h31.0024061c1.119249 0 .977355.271438 1.092227.612846l2.834646 8.42481c.114872.341409.027022.612846-1.092227.612846h-36.6716978c-1.1192491 0-1.2070995-.271437-1.0922275-.612846l2.8346457-8.42481c.114872-.341409-.0270216-.612846 1.0922275-.612846z" fill="url(#p)" stroke="url(#k)"/><path d="m6.3916892 38.829113-1.7677669 5.126525h5.4800777l.53033-2.032932h14.849242l.549679 2.075114h6.167835l-1.679378-5.168707z" fill="#7a7d77"/><path d="m11.076272 42.27626-.441942 1.679379h14.760854l-.441942-1.767767z" fill="#777874"/><path d="m37.592776 38.829114 1.679379 5.038136-5.480078-.088389-1.502602-4.861359 5.303301-.088388z" fill="#777a75"/><path d="m37.592776 38.298786 1.679379 5.038136-5.480078-.088389-1.502602-4.861359 5.303301-.088388z" fill="url(#d)"/><path d="m6.3916892 38.210397-1.7677669 5.126525h5.4800777l.53033-2.032932h14.849242l.549679 2.075114h6.167835l-1.679378-5.168707z" fill="url(#d)"/><path d="m11.076272 41.745932-.441942 1.679379h14.760854l-.441942-1.767767-13.87697.088388z" fill="url(#d)"/></g><path d="m6.1278189 37.578116h31.8258151l2.637179 8.092563h-37.2610701l2.798076-8.092563z" fill="none" stroke="url(#e)" stroke-linejoin="round" stroke-width=".5"/><path d="m35.620504 3.9384086a.83968931.83968931 0 1 1 -1.679378 0 .83968931.83968931 0 1 1 1.679378 0z" fill="url(#f)" fill-rule="evenodd" transform="matrix(1.331237 0 0 .658449 -10.41933 2.853866)"/><path d="m35.620504 3.9384086a.83968931.83968931 0 1 1 -1.679378 0 .83968931.83968931 0 1 1 1.679378 0z" fill="url(#f)" fill-rule="evenodd" transform="matrix(1.331237 0 0 .658449 -10.30573 4.959651)"/><path d="m35.620504 3.9384086a.83968931.83968931 0 1 1 -1.679378 0 .83968931.83968931 0 1 1 1.679378 0z" fill="url(#f)" fill-rule="evenodd" transform="matrix(1.331237 0 0 .658449 -10.19213 6.959651)"/><path d="m35.620504 3.9384086a.83968931.83968931 0 1 1 -1.679378 0 .83968931.83968931 0 1 1 1.679378 0z" fill="url(#f)" fill-rule="evenodd" transform="matrix(1.331237 0 0 .658449 -10.07853 8.959651)"/><path d="m35.620504 3.9384086a.83968931.83968931 0 1 1 -1.679378 0 .83968931.83968931 0 1 1 1.679378 0z" fill="url(#f)" fill-rule="evenodd" transform="matrix(1.331237 0 0 .658449 -9.96493 10.95965)"/><path d="m20 27.317666h.281716c.083765.000001.147985.018664.19266.05599.044969.037034.067453.089938.067454.158714-.000001.06907-.022485.122268-.067454.159595-.044675.037033-.108895.05555-.19266.05555h-.111981v.22837h-.169735zm.169735.123003v.183843h.093905c.032918 0 .058342-.007936.076271-.023807.017928-.016165.026893-.038943.026893-.068335 0-.029391-.008965-.052022-.026893-.067894-.017929-.015871-.043353-.023807-.076271-.023807zm.792244-.011904c-.051729.000001-.091848.019105-.120358.057313-.028509.03821-.042764.091996-.042764.161359 0 .06907.014255.122709.042764.160918.02851.038209.068629.057313.120358.057313.052022 0 .092288-.019104.120799-.057313.028509-.038209.042763-.091848.042764-.160918-.000001-.069363-.014255-.123149-.042764-.161359-.028511-.038208-.068777-.057312-.120799-.057313m0-.123003c.105808.000001.188692.030274.248651.09082.059958.060546.089937.144165.089938.250855-.000001.106397-.02998.189868-.089938.250414-.059959.060547-.142843.09082-.248651.09082-.105515 0-.188399-.030273-.248651-.09082-.059958-.060546-.089937-.144017-.089937-.250414 0-.10669.029979-.190309.089937-.250855.060252-.060546.143136-.090819.248651-.09082m.466441.011904h.189574l.239393.451451v-.451451h.160918v.658219h-.189575l-.239392-.451451v.451451h-.160918zm.663069 0h.185606l.149896.234543.149896-.234543h.186048l-.250856.380912v.277307h-.169735v-.277307z" fill="#4a4a4a"/></g><g transform="matrix(.533853 0 0 .533853 85.00556 218.7248)"><path d="m41.10058 35.051105a16.882174 4.552 0 1 1 -33.7643469 0 16.882174 4.552 0 1 1 33.7643469 0z" fill="url(#g)" fill-rule="evenodd" transform="matrix(1 0 0 1.368932 -1.978553 -13.61713)"/><path d="m-26.263968 29.716238a9.3944187 3.939595 0 1 1 -18.788837 0 9.3944187 3.939595 0 1 1 18.788837 0z" fill="#adb0aa" fill-rule="evenodd" stroke="#4b4d4a" transform="translate(57.53339 3.203427)"/><path d="m-26.263968 29.716238a9.3944187 3.939595 0 1 1 -18.788837 0 9.3944187 3.939595 0 1 1 18.788837 0z" fill="none" stroke="#7b7f7a" transform="matrix(.940273 0 0 .940273 55.40361 4.271194)"/><path d="m-26.263968 29.716238a9.3944187 3.939595 0 1 1 -18.788837 0 9.3944187 3.939595 0 1 1 18.788837 0z" fill="none" stroke="url(#h)" stroke-width=".680653" transform="matrix(.940273 0 0 .940273 55.40361 3.521194)"/><path d="m25.6875 28.766243-.0625 1s4.324108 3.599166 9 4.202507c2.337946.30167 4.753675.702412 6.75 1.1875s3.588356 1.119606 4.125 1.65625c.310411.310411.451063.573639.5.78125s.038217.354815-.09375.5625c-.263933.41537-1.079857.967652-2.46875 1.40625-2.777785.877195-7.720424 1.4375-14.5625 1.4375v1c6.895998 0 11.863665-.527671 14.84375-1.46875 1.490042-.47054 2.524942-1.015687 3.03125-1.8125.253154-.398406.357321-.888449.25-1.34375s-.384555-.884555-.78125-1.28125c-.87757-.87757-2.536838-1.40644-4.59375-1.90625s-4.515736-.914329-6.875-1.21875c-4.718527-.608842-9.0625-4.202507-9.0625-4.202507z" fill="#d0d0d0" fill-rule="evenodd" stroke="#979797" stroke-linejoin="round" stroke-width=".4"/><path d="m41.10058 35.051105a16.882174 4.552 0 1 1 -33.7643469 0 16.882174 4.552 0 1 1 33.7643469 0z" fill="url(#g)" fill-rule="evenodd" transform="matrix(1 0 0 1.368932 -1.978553 -19.02126)"/><path d="m17.472397 30.703611h9.039673v2.740039h-9.039673z" fill="url(#i)" fill-rule="evenodd"/><path d="m7.0809024 1.6956221h29.5881946c.911342 0 1.624147.5834818 1.666752 1.401587l1.332044 25.5781139c.058209 1.117735-.901056 2.020305-2.020305 2.020305h-31.545176c-1.1192491 0-2.078514-.90257-2.0203052-2.020305l1.3320438-25.5781139c.0402837-.7735346.5475027-1.401587 1.6667518-1.401587z" fill="url(#j)" fill-rule="evenodd" stroke="url(#k)"/><path d="m8.4105348 4.3058272-1.242195 22.0453168h27.6503892l-1.335017-21.9518882z" fill="url(#l)" fill-rule="evenodd" stroke="#000079" stroke-linejoin="round" stroke-width=".5"/><path d="m6.1774331 28.735789h31.4284769" fill="none" stroke="url(#m)" stroke-linecap="round" stroke-opacity=".248408" stroke-width=".996181"/><path d="m6.9145985 2.7063396 29.8455025-.0378013c.283697-.0003593.559302.2372498.582105.6525438l1.361892 24.8032479c.058039 1.057031-.539749 1.785871-1.598371 1.785871h-30.5239687c-1.0586228 0-1.5930144-.728791-1.5358714-1.785871l1.3240904-24.4941667c.0386959-.7158307.1663854-.9233446.5446212-.9238237z" fill="none" stroke="url(#n)" stroke-opacity=".700637"/><g fill-rule="evenodd"><path d="m8.7115364 4.7463626-.8025295 17.8703304c11.0446381-2.40063 11.4214631-10.492199 25.1540321-13.1467504l-.161472-4.6575159z" fill="url(#o)" opacity=".531429"/><path d="m41.10058 35.051105a16.882174 4.552 0 1 1 -33.7643469 0 16.882174 4.552 0 1 1 33.7643469 0z" fill="url(#g)" transform="matrix(1.264398 0 0 1.291262 -6.216332 -4.000423)"/><path d="m6.4621839 36.817452h31.0024061c1.119249 0 .977355.271438 1.092227.612846l2.834646 8.42481c.114872.341409.027022.612846-1.092227.612846h-36.6716978c-1.1192491 0-1.2070995-.271437-1.0922275-.612846l2.8346457-8.42481c.114872-.341409-.0270216-.612846 1.0922275-.612846z" fill="url(#p)" stroke="url(#k)"/><path d="m6.3916892 38.829113-1.7677669 5.126525h5.4800777l.53033-2.032932h14.849242l.549679 2.075114h6.167835l-1.679378-5.168707z" fill="#7a7d77"/><path d="m11.076272 42.27626-.441942 1.679379h14.760854l-.441942-1.767767z" fill="#777874"/><path d="m37.592776 38.829114 1.679379 5.038136-5.480078-.088389-1.502602-4.861359 5.303301-.088388z" fill="#777a75"/><path d="m37.592776 38.298786 1.679379 5.038136-5.480078-.088389-1.502602-4.861359 5.303301-.088388z" fill="url(#d)"/><path d="m6.3916892 38.210397-1.7677669 5.126525h5.4800777l.53033-2.032932h14.849242l.549679 2.075114h6.167835l-1.679378-5.168707z" fill="url(#d)"/><path d="m11.076272 41.745932-.441942 1.679379h14.760854l-.441942-1.767767-13.87697.088388z" fill="url(#d)"/></g><path d="m6.1278189 37.578116h31.8258151l2.637179 8.092563h-37.2610701l2.798076-8.092563z" fill="none" stroke="url(#e)" stroke-linejoin="round" stroke-width=".5"/><path d="m35.620504 3.9384086a.83968931.83968931 0 1 1 -1.679378 0 .83968931.83968931 0 1 1 1.679378 0z" fill="url(#f)" fill-rule="evenodd" transform="matrix(1.331237 0 0 .658449 -10.41933 2.853866)"/><path d="m35.620504 3.9384086a.83968931.83968931 0 1 1 -1.679378 0 .83968931.83968931 0 1 1 1.679378 0z" fill="url(#f)" fill-rule="evenodd" transform="matrix(1.331237 0 0 .658449 -10.30573 4.959651)"/><path d="m35.620504 3.9384086a.83968931.83968931 0 1 1 -1.679378 0 .83968931.83968931 0 1 1 1.679378 0z" fill="url(#f)" fill-rule="evenodd" transform="matrix(1.331237 0 0 .658449 -10.19213 6.959651)"/><path d="m35.620504 3.9384086a.83968931.83968931 0 1 1 -1.679378 0 .83968931.83968931 0 1 1 1.679378 0z" fill="url(#f)" fill-rule="evenodd" transform="matrix(1.331237 0 0 .658449 -10.07853 8.959651)"/><path d="m35.620504 3.9384086a.83968931.83968931 0 1 1 -1.679378 0 .83968931.83968931 0 1 1 1.679378 0z" fill="url(#f)" fill-rule="evenodd" transform="matrix(1.331237 0 0 .658449 -9.96493 10.95965)"/><path d="m20 27.317666h.281716c.083765.000001.147985.018664.19266.05599.044969.037034.067453.089938.067454.158714-.000001.06907-.022485.122268-.067454.159595-.044675.037033-.108895.05555-.19266.05555h-.111981v.22837h-.169735zm.169735.123003v.183843h.093905c.032918 0 .058342-.007936.076271-.023807.017928-.016165.026893-.038943.026893-.068335 0-.029391-.008965-.052022-.026893-.067894-.017929-.015871-.043353-.023807-.076271-.023807zm.792244-.011904c-.051729.000001-.091848.019105-.120358.057313-.028509.03821-.042764.091996-.042764.161359 0 .06907.014255.122709.042764.160918.02851.038209.068629.057313.120358.057313.052022 0 .092288-.019104.120799-.057313.028509-.038209.042763-.091848.042764-.160918-.000001-.069363-.014255-.123149-.042764-.161359-.028511-.038208-.068777-.057312-.120799-.057313m0-.123003c.105808.000001.188692.030274.248651.09082.059958.060546.089937.144165.089938.250855-.000001.106397-.02998.189868-.089938.250414-.059959.060547-.142843.09082-.248651.09082-.105515 0-.188399-.030273-.248651-.09082-.059958-.060546-.089937-.144017-.089937-.250414 0-.10669.029979-.190309.089937-.250855.060252-.060546.143136-.090819.248651-.09082m.466441.011904h.189574l.239393.451451v-.451451h.160918v.658219h-.189575l-.239392-.451451v.451451h-.160918zm.663069 0h.185606l.149896.234543.149896-.234543h.186048l-.250856.380912v.277307h-.169735v-.277307z" fill="#4a4a4a"/></g><path d="m207.46577 269.69854 3.78125 13.125.90625-3.90625c10.20021 16.24345 18.07353 28.82844 21.28125 33.9375l-3.875-.875 10.15625 9.125-3.8125-13.125-.90625 3.875c-.46727-.74908-5.81465-9.29233-21.28125-33.9375l3.90625.90625z" fill="#3465a4"/><g transform="matrix(.533853 0 0 .533853 115.8387 138.0317)"><path d="m41.10058 35.051105a16.882174 4.552 0 1 1 -33.7643469 0 16.882174 4.552 0 1 1 33.7643469 0z" fill="url(#g)" fill-rule="evenodd" transform="matrix(1 0 0 1.368932 -1.978553 -13.61713)"/><path d="m-26.263968 29.716238a9.3944187 3.939595 0 1 1 -18.788837 0 9.3944187 3.939595 0 1 1 18.788837 0z" fill="#adb0aa" fill-rule="evenodd" stroke="#4b4d4a" transform="translate(57.53339 3.203427)"/><path d="m-26.263968 29.716238a9.3944187 3.939595 0 1 1 -18.788837 0 9.3944187 3.939595 0 1 1 18.788837 0z" fill="none" stroke="#7b7f7a" transform="matrix(.940273 0 0 .940273 55.40361 4.271194)"/><path d="m-26.263968 29.716238a9.3944187 3.939595 0 1 1 -18.788837 0 9.3944187 3.939595 0 1 1 18.788837 0z" fill="none" stroke="url(#h)" stroke-width=".680653" transform="matrix(.940273 0 0 .940273 55.40361 3.521194)"/><path d="m25.6875 28.766243-.0625 1s4.324108 3.599166 9 4.202507c2.337946.30167 4.753675.702412 6.75 1.1875s3.588356 1.119606 4.125 1.65625c.310411.310411.451063.573639.5.78125s.038217.354815-.09375.5625c-.263933.41537-1.079857.967652-2.46875 1.40625-2.777785.877195-7.720424 1.4375-14.5625 1.4375v1c6.895998 0 11.863665-.527671 14.84375-1.46875 1.490042-.47054 2.524942-1.015687 3.03125-1.8125.253154-.398406.357321-.888449.25-1.34375s-.384555-.884555-.78125-1.28125c-.87757-.87757-2.536838-1.40644-4.59375-1.90625s-4.515736-.914329-6.875-1.21875c-4.718527-.608842-9.0625-4.202507-9.0625-4.202507z" fill="#d0d0d0" fill-rule="evenodd" stroke="#979797" stroke-linejoin="round" stroke-width=".4"/><path d="m41.10058 35.051105a16.882174 4.552 0 1 1 -33.7643469 0 16.882174 4.552 0 1 1 33.7643469 0z" fill="url(#g)" fill-rule="evenodd" transform="matrix(1 0 0 1.368932 -1.978553 -19.02126)"/><path d="m17.472397 30.703611h9.039673v2.740039h-9.039673z" fill="url(#i)" fill-rule="evenodd"/><path d="m7.0809024 1.6956221h29.5881946c.911342 0 1.624147.5834818 1.666752 1.401587l1.332044 25.5781139c.058209 1.117735-.901056 2.020305-2.020305 2.020305h-31.545176c-1.1192491 0-2.078514-.90257-2.0203052-2.020305l1.3320438-25.5781139c.0402837-.7735346.5475027-1.401587 1.6667518-1.401587z" fill="url(#j)" fill-rule="evenodd" stroke="url(#k)"/><path d="m8.4105348 4.3058272-1.242195 22.0453168h27.6503892l-1.335017-21.9518882z" fill="url(#l)" fill-rule="evenodd" stroke="#000079" stroke-linejoin="round" stroke-width=".5"/><path d="m6.1774331 28.735789h31.4284769" fill="none" stroke="url(#m)" stroke-linecap="round" stroke-opacity=".248408" stroke-width=".996181"/><path d="m6.9145985 2.7063396 29.8455025-.0378013c.283697-.0003593.559302.2372498.582105.6525438l1.361892 24.8032479c.058039 1.057031-.539749 1.785871-1.598371 1.785871h-30.5239687c-1.0586228 0-1.5930144-.728791-1.5358714-1.785871l1.3240904-24.4941667c.0386959-.7158307.1663854-.9233446.5446212-.9238237z" fill="none" stroke="url(#n)" stroke-opacity=".700637"/><g fill-rule="evenodd"><path d="m8.7115364 4.7463626-.8025295 17.8703304c11.0446381-2.40063 11.4214631-10.492199 25.1540321-13.1467504l-.161472-4.6575159z" fill="url(#o)" opacity=".531429"/><path d="m41.10058 35.051105a16.882174 4.552 0 1 1 -33.7643469 0 16.882174 4.552 0 1 1 33.7643469 0z" fill="url(#g)" transform="matrix(1.264398 0 0 1.291262 -6.216332 -4.000423)"/><path d="m6.4621839 36.817452h31.0024061c1.119249 0 .977355.271438 1.092227.612846l2.834646 8.42481c.114872.341409.027022.612846-1.092227.612846h-36.6716978c-1.1192491 0-1.2070995-.271437-1.0922275-.612846l2.8346457-8.42481c.114872-.341409-.0270216-.612846 1.0922275-.612846z" fill="url(#p)" stroke="url(#k)"/><path d="m6.3916892 38.829113-1.7677669 5.126525h5.4800777l.53033-2.032932h14.849242l.549679 2.075114h6.167835l-1.679378-5.168707z" fill="#7a7d77"/><path d="m11.076272 42.27626-.441942 1.679379h14.760854l-.441942-1.767767z" fill="#777874"/><path d="m37.592776 38.829114 1.679379 5.038136-5.480078-.088389-1.502602-4.861359 5.303301-.088388z" fill="#777a75"/><path d="m37.592776 38.298786 1.679379 5.038136-5.480078-.088389-1.502602-4.861359 5.303301-.088388z" fill="url(#d)"/><path d="m6.3916892 38.210397-1.7677669 5.126525h5.4800777l.53033-2.032932h14.849242l.549679 2.075114h6.167835l-1.679378-5.168707z" fill="url(#d)"/><path d="m11.076272 41.745932-.441942 1.679379h14.760854l-.441942-1.767767-13.87697.088388z" fill="url(#d)"/></g><path d="m6.1278189 37.578116h31.8258151l2.637179 8.092563h-37.2610701l2.798076-8.092563z" fill="none" stroke="url(#e)" stroke-linejoin="round" stroke-width=".5"/><path d="m35.620504 3.9384086a.83968931.83968931 0 1 1 -1.679378 0 .83968931.83968931 0 1 1 1.679378 0z" fill="url(#f)" fill-rule="evenodd" transform="matrix(1.331237 0 0 .658449 -10.41933 2.853866)"/><path d="m35.620504 3.9384086a.83968931.83968931 0 1 1 -1.679378 0 .83968931.83968931 0 1 1 1.679378 0z" fill="url(#f)" fill-rule="evenodd" transform="matrix(1.331237 0 0 .658449 -10.30573 4.959651)"/><path d="m35.620504 3.9384086a.83968931.83968931 0 1 1 -1.679378 0 .83968931.83968931 0 1 1 1.679378 0z" fill="url(#f)" fill-rule="evenodd" transform="matrix(1.331237 0 0 .658449 -10.19213 6.959651)"/><path d="m35.620504 3.9384086a.83968931.83968931 0 1 1 -1.679378 0 .83968931.83968931 0 1 1 1.679378 0z" fill="url(#f)" fill-rule="evenodd" transform="matrix(1.331237 0 0 .658449 -10.07853 8.959651)"/><path d="m35.620504 3.9384086a.83968931.83968931 0 1 1 -1.679378 0 .83968931.83968931 0 1 1 1.679378 0z" fill="url(#f)" fill-rule="evenodd" transform="matrix(1.331237 0 0 .658449 -9.96493 10.95965)"/><path d="m20 27.317666h.281716c.083765.000001.147985.018664.19266.05599.044969.037034.067453.089938.067454.158714-.000001.06907-.022485.122268-.067454.159595-.044675.037033-.108895.05555-.19266.05555h-.111981v.22837h-.169735zm.169735.123003v.183843h.093905c.032918 0 .058342-.007936.076271-.023807.017928-.016165.026893-.038943.026893-.068335 0-.029391-.008965-.052022-.026893-.067894-.017929-.015871-.043353-.023807-.076271-.023807zm.792244-.011904c-.051729.000001-.091848.019105-.120358.057313-.028509.03821-.042764.091996-.042764.161359 0 .06907.014255.122709.042764.160918.02851.038209.068629.057313.120358.057313.052022 0 .092288-.019104.120799-.057313.028509-.038209.042763-.091848.042764-.160918-.000001-.069363-.014255-.123149-.042764-.161359-.028511-.038208-.068777-.057312-.120799-.057313m0-.123003c.105808.000001.188692.030274.248651.09082.059958.060546.089937.144165.089938.250855-.000001.106397-.02998.189868-.089938.250414-.059959.060547-.142843.09082-.248651.09082-.105515 0-.188399-.030273-.248651-.09082-.059958-.060546-.089937-.144017-.089937-.250414 0-.10669.029979-.190309.089937-.250855.060252-.060546.143136-.090819.248651-.09082m.466441.011904h.189574l.239393.451451v-.451451h.160918v.658219h-.189575l-.239392-.451451v.451451h-.160918zm.663069 0h.185606l.149896.234543.149896-.234543h.186048l-.250856.380912v.277307h-.169735v-.277307z" fill="#4a4a4a"/></g><g transform="matrix(.533853 0 0 .533853 384.4701 138.0317)"><path d="m41.10058 35.051105a16.882174 4.552 0 1 1 -33.7643469 0 16.882174 4.552 0 1 1 33.7643469 0z" fill="url(#g)" fill-rule="evenodd" transform="matrix(1 0 0 1.368932 -1.978553 -13.61713)"/><path d="m-26.263968 29.716238a9.3944187 3.939595 0 1 1 -18.788837 0 9.3944187 3.939595 0 1 1 18.788837 0z" fill="#adb0aa" fill-rule="evenodd" stroke="#4b4d4a" transform="translate(57.53339 3.203427)"/><path d="m-26.263968 29.716238a9.3944187 3.939595 0 1 1 -18.788837 0 9.3944187 3.939595 0 1 1 18.788837 0z" fill="none" stroke="#7b7f7a" transform="matrix(.940273 0 0 .940273 55.40361 4.271194)"/><path d="m-26.263968 29.716238a9.3944187 3.939595 0 1 1 -18.788837 0 9.3944187 3.939595 0 1 1 18.788837 0z" fill="none" stroke="url(#h)" stroke-width=".680653" transform="matrix(.940273 0 0 .940273 55.40361 3.521194)"/><path d="m25.6875 28.766243-.0625 1s4.324108 3.599166 9 4.202507c2.337946.30167 4.753675.702412 6.75 1.1875s3.588356 1.119606 4.125 1.65625c.310411.310411.451063.573639.5.78125s.038217.354815-.09375.5625c-.263933.41537-1.079857.967652-2.46875 1.40625-2.777785.877195-7.720424 1.4375-14.5625 1.4375v1c6.895998 0 11.863665-.527671 14.84375-1.46875 1.490042-.47054 2.524942-1.015687 3.03125-1.8125.253154-.398406.357321-.888449.25-1.34375s-.384555-.884555-.78125-1.28125c-.87757-.87757-2.536838-1.40644-4.59375-1.90625s-4.515736-.914329-6.875-1.21875c-4.718527-.608842-9.0625-4.202507-9.0625-4.202507z" fill="#d0d0d0" fill-rule="evenodd" stroke="#979797" stroke-linejoin="round" stroke-width=".4"/><path d="m41.10058 35.051105a16.882174 4.552 0 1 1 -33.7643469 0 16.882174 4.552 0 1 1 33.7643469 0z" fill="url(#g)" fill-rule="evenodd" transform="matrix(1 0 0 1.368932 -1.978553 -19.02126)"/><path d="m17.472397 30.703611h9.039673v2.740039h-9.039673z" fill="url(#i)" fill-rule="evenodd"/><path d="m7.0809024 1.6956221h29.5881946c.911342 0 1.624147.5834818 1.666752 1.401587l1.332044 25.5781139c.058209 1.117735-.901056 2.020305-2.020305 2.020305h-31.545176c-1.1192491 0-2.078514-.90257-2.0203052-2.020305l1.3320438-25.5781139c.0402837-.7735346.5475027-1.401587 1.6667518-1.401587z" fill="url(#j)" fill-rule="evenodd" stroke="url(#k)"/><path d="m8.4105348 4.3058272-1.242195 22.0453168h27.6503892l-1.335017-21.9518882z" fill="url(#l)" fill-rule="evenodd" stroke="#000079" stroke-linejoin="round" stroke-width=".5"/><path d="m6.1774331 28.735789h31.4284769" fill="none" stroke="url(#m)" stroke-linecap="round" stroke-opacity=".248408" stroke-width=".996181"/><path d="m6.9145985 2.7063396 29.8455025-.0378013c.283697-.0003593.559302.2372498.582105.6525438l1.361892 24.8032479c.058039 1.057031-.539749 1.785871-1.598371 1.785871h-30.5239687c-1.0586228 0-1.5930144-.728791-1.5358714-1.785871l1.3240904-24.4941667c.0386959-.7158307.1663854-.9233446.5446212-.9238237z" fill="none" stroke="url(#n)" stroke-opacity=".700637"/><g fill-rule="evenodd"><path d="m8.7115364 4.7463626-.8025295 17.8703304c11.0446381-2.40063 11.4214631-10.492199 25.1540321-13.1467504l-.161472-4.6575159z" fill="url(#o)" opacity=".531429"/><path d="m41.10058 35.051105a16.882174 4.552 0 1 1 -33.7643469 0 16.882174 4.552 0 1 1 33.7643469 0z" fill="url(#g)" transform="matrix(1.264398 0 0 1.291262 -6.216332 -4.000423)"/><path d="m6.4621839 36.817452h31.0024061c1.119249 0 .977355.271438 1.092227.612846l2.834646 8.42481c.114872.341409.027022.612846-1.092227.612846h-36.6716978c-1.1192491 0-1.2070995-.271437-1.0922275-.612846l2.8346457-8.42481c.114872-.341409-.0270216-.612846 1.0922275-.612846z" fill="url(#p)" stroke="url(#k)"/><path d="m6.3916892 38.829113-1.7677669 5.126525h5.4800777l.53033-2.032932h14.849242l.549679 2.075114h6.167835l-1.679378-5.168707z" fill="#7a7d77"/><path d="m11.076272 42.27626-.441942 1.679379h14.760854l-.441942-1.767767z" fill="#777874"/><path d="m37.592776 38.829114 1.679379 5.038136-5.480078-.088389-1.502602-4.861359 5.303301-.088388z" fill="#777a75"/><path d="m37.592776 38.298786 1.679379 5.038136-5.480078-.088389-1.502602-4.861359 5.303301-.088388z" fill="url(#d)"/><path d="m6.3916892 38.210397-1.7677669 5.126525h5.4800777l.53033-2.032932h14.849242l.549679 2.075114h6.167835l-1.679378-5.168707z" fill="url(#d)"/><path d="m11.076272 41.745932-.441942 1.679379h14.760854l-.441942-1.767767-13.87697.088388z" fill="url(#d)"/></g><path d="m6.1278189 37.578116h31.8258151l2.637179 8.092563h-37.2610701l2.798076-8.092563z" fill="none" stroke="url(#e)" stroke-linejoin="round" stroke-width=".5"/><path d="m35.620504 3.9384086a.83968931.83968931 0 1 1 -1.679378 0 .83968931.83968931 0 1 1 1.679378 0z" fill="url(#f)" fill-rule="evenodd" transform="matrix(1.331237 0 0 .658449 -10.41933 2.853866)"/><path d="m35.620504 3.9384086a.83968931.83968931 0 1 1 -1.679378 0 .83968931.83968931 0 1 1 1.679378 0z" fill="url(#f)" fill-rule="evenodd" transform="matrix(1.331237 0 0 .658449 -10.30573 4.959651)"/><path d="m35.620504 3.9384086a.83968931.83968931 0 1 1 -1.679378 0 .83968931.83968931 0 1 1 1.679378 0z" fill="url(#f)" fill-rule="evenodd" transform="matrix(1.331237 0 0 .658449 -10.19213 6.959651)"/><path d="m35.620504 3.9384086a.83968931.83968931 0 1 1 -1.679378 0 .83968931.83968931 0 1 1 1.679378 0z" fill="url(#f)" fill-rule="evenodd" transform="matrix(1.331237 0 0 .658449 -10.07853 8.959651)"/><path d="m35.620504 3.9384086a.83968931.83968931 0 1 1 -1.679378 0 .83968931.83968931 0 1 1 1.679378 0z" fill="url(#f)" fill-rule="evenodd" transform="matrix(1.331237 0 0 .658449 -9.96493 10.95965)"/><path d="m20 27.317666h.281716c.083765.000001.147985.018664.19266.05599.044969.037034.067453.089938.067454.158714-.000001.06907-.022485.122268-.067454.159595-.044675.037033-.108895.05555-.19266.05555h-.111981v.22837h-.169735zm.169735.123003v.183843h.093905c.032918 0 .058342-.007936.076271-.023807.017928-.016165.026893-.038943.026893-.068335 0-.029391-.008965-.052022-.026893-.067894-.017929-.015871-.043353-.023807-.076271-.023807zm.792244-.011904c-.051729.000001-.091848.019105-.120358.057313-.028509.03821-.042764.091996-.042764.161359 0 .06907.014255.122709.042764.160918.02851.038209.068629.057313.120358.057313.052022 0 .092288-.019104.120799-.057313.028509-.038209.042763-.091848.042764-.160918-.000001-.069363-.014255-.123149-.042764-.161359-.028511-.038208-.068777-.057312-.120799-.057313m0-.123003c.105808.000001.188692.030274.248651.09082.059958.060546.089937.144165.089938.250855-.000001.106397-.02998.189868-.089938.250414-.059959.060547-.142843.09082-.248651.09082-.105515 0-.188399-.030273-.248651-.09082-.059958-.060546-.089937-.144017-.089937-.250414 0-.10669.029979-.190309.089937-.250855.060252-.060546.143136-.090819.248651-.09082m.466441.011904h.189574l.239393.451451v-.451451h.160918v.658219h-.189575l-.239392-.451451v.451451h-.160918zm.663069 0h.185606l.149896.234543.149896-.234543h.186048l-.250856.380912v.277307h-.169735v-.277307z" fill="#4a4a4a"/></g><g transform="matrix(.533853 0 0 .533853 426.1701 218.7248)"><path d="m41.10058 35.051105a16.882174 4.552 0 1 1 -33.7643469 0 16.882174 4.552 0 1 1 33.7643469 0z" fill="url(#g)" fill-rule="evenodd" transform="matrix(1 0 0 1.368932 -1.978553 -13.61713)"/><path d="m-26.263968 29.716238a9.3944187 3.939595 0 1 1 -18.788837 0 9.3944187 3.939595 0 1 1 18.788837 0z" fill="#adb0aa" fill-rule="evenodd" stroke="#4b4d4a" transform="translate(57.53339 3.203427)"/><path d="m-26.263968 29.716238a9.3944187 3.939595 0 1 1 -18.788837 0 9.3944187 3.939595 0 1 1 18.788837 0z" fill="none" stroke="#7b7f7a" transform="matrix(.940273 0 0 .940273 55.40361 4.271194)"/><path d="m-26.263968 29.716238a9.3944187 3.939595 0 1 1 -18.788837 0 9.3944187 3.939595 0 1 1 18.788837 0z" fill="none" stroke="url(#h)" stroke-width=".680653" transform="matrix(.940273 0 0 .940273 55.40361 3.521194)"/><path d="m25.6875 28.766243-.0625 1s4.324108 3.599166 9 4.202507c2.337946.30167 4.753675.702412 6.75 1.1875s3.588356 1.119606 4.125 1.65625c.310411.310411.451063.573639.5.78125s.038217.354815-.09375.5625c-.263933.41537-1.079857.967652-2.46875 1.40625-2.777785.877195-7.720424 1.4375-14.5625 1.4375v1c6.895998 0 11.863665-.527671 14.84375-1.46875 1.490042-.47054 2.524942-1.015687 3.03125-1.8125.253154-.398406.357321-.888449.25-1.34375s-.384555-.884555-.78125-1.28125c-.87757-.87757-2.536838-1.40644-4.59375-1.90625s-4.515736-.914329-6.875-1.21875c-4.718527-.608842-9.0625-4.202507-9.0625-4.202507z" fill="#d0d0d0" fill-rule="evenodd" stroke="#979797" stroke-linejoin="round" stroke-width=".4"/><path d="m41.10058 35.051105a16.882174 4.552 0 1 1 -33.7643469 0 16.882174 4.552 0 1 1 33.7643469 0z" fill="url(#g)" fill-rule="evenodd" transform="matrix(1 0 0 1.368932 -1.978553 -19.02126)"/><path d="m17.472397 30.703611h9.039673v2.740039h-9.039673z" fill="url(#i)" fill-rule="evenodd"/><path d="m7.0809024 1.6956221h29.5881946c.911342 0 1.624147.5834818 1.666752 1.401587l1.332044 25.5781139c.058209 1.117735-.901056 2.020305-2.020305 2.020305h-31.545176c-1.1192491 0-2.078514-.90257-2.0203052-2.020305l1.3320438-25.5781139c.0402837-.7735346.5475027-1.401587 1.6667518-1.401587z" fill="url(#j)" fill-rule="evenodd" stroke="url(#k)"/><path d="m8.4105348 4.3058272-1.242195 22.0453168h27.6503892l-1.335017-21.9518882z" fill="url(#l)" fill-rule="evenodd" stroke="#000079" stroke-linejoin="round" stroke-width=".5"/><path d="m6.1774331 28.735789h31.4284769" fill="none" stroke="url(#m)" stroke-linecap="round" stroke-opacity=".248408" stroke-width=".996181"/><path d="m6.9145985 2.7063396 29.8455025-.0378013c.283697-.0003593.559302.2372498.582105.6525438l1.361892 24.8032479c.058039 1.057031-.539749 1.785871-1.598371 1.785871h-30.5239687c-1.0586228 0-1.5930144-.728791-1.5358714-1.785871l1.3240904-24.4941667c.0386959-.7158307.1663854-.9233446.5446212-.9238237z" fill="none" stroke="url(#n)" stroke-opacity=".700637"/><g fill-rule="evenodd"><path d="m8.7115364 4.7463626-.8025295 17.8703304c11.0446381-2.40063 11.4214631-10.492199 25.1540321-13.1467504l-.161472-4.6575159z" fill="url(#o)" opacity=".531429"/><path d="m41.10058 35.051105a16.882174 4.552 0 1 1 -33.7643469 0 16.882174 4.552 0 1 1 33.7643469 0z" fill="url(#g)" transform="matrix(1.264398 0 0 1.291262 -6.216332 -4.000423)"/><path d="m6.4621839 36.817452h31.0024061c1.119249 0 .977355.271438 1.092227.612846l2.834646 8.42481c.114872.341409.027022.612846-1.092227.612846h-36.6716978c-1.1192491 0-1.2070995-.271437-1.0922275-.612846l2.8346457-8.42481c.114872-.341409-.0270216-.612846 1.0922275-.612846z" fill="url(#p)" stroke="url(#k)"/><path d="m6.3916892 38.829113-1.7677669 5.126525h5.4800777l.53033-2.032932h14.849242l.549679 2.075114h6.167835l-1.679378-5.168707z" fill="#7a7d77"/><path d="m11.076272 42.27626-.441942 1.679379h14.760854l-.441942-1.767767z" fill="#777874"/><path d="m37.592776 38.829114 1.679379 5.038136-5.480078-.088389-1.502602-4.861359 5.303301-.088388z" fill="#777a75"/><path d="m37.592776 38.298786 1.679379 5.038136-5.480078-.088389-1.502602-4.861359 5.303301-.088388z" fill="url(#d)"/><path d="m6.3916892 38.210397-1.7677669 5.126525h5.4800777l.53033-2.032932h14.849242l.549679 2.075114h6.167835l-1.679378-5.168707z" fill="url(#d)"/><path d="m11.076272 41.745932-.441942 1.679379h14.760854l-.441942-1.767767-13.87697.088388z" fill="url(#d)"/></g><path d="m6.1278189 37.578116h31.8258151l2.637179 8.092563h-37.2610701l2.798076-8.092563z" fill="none" stroke="url(#e)" stroke-linejoin="round" stroke-width=".5"/><path d="m35.620504 3.9384086a.83968931.83968931 0 1 1 -1.679378 0 .83968931.83968931 0 1 1 1.679378 0z" fill="url(#f)" fill-rule="evenodd" transform="matrix(1.331237 0 0 .658449 -10.41933 2.853866)"/><path d="m35.620504 3.9384086a.83968931.83968931 0 1 1 -1.679378 0 .83968931.83968931 0 1 1 1.679378 0z" fill="url(#f)" fill-rule="evenodd" transform="matrix(1.331237 0 0 .658449 -10.30573 4.959651)"/><path d="m35.620504 3.9384086a.83968931.83968931 0 1 1 -1.679378 0 .83968931.83968931 0 1 1 1.679378 0z" fill="url(#f)" fill-rule="evenodd" transform="matrix(1.331237 0 0 .658449 -10.19213 6.959651)"/><path d="m35.620504 3.9384086a.83968931.83968931 0 1 1 -1.679378 0 .83968931.83968931 0 1 1 1.679378 0z" fill="url(#f)" fill-rule="evenodd" transform="matrix(1.331237 0 0 .658449 -10.07853 8.959651)"/><path d="m35.620504 3.9384086a.83968931.83968931 0 1 1 -1.679378 0 .83968931.83968931 0 1 1 1.679378 0z" fill="url(#f)" fill-rule="evenodd" transform="matrix(1.331237 0 0 .658449 -9.96493 10.95965)"/><path d="m20 27.317666h.281716c.083765.000001.147985.018664.19266.05599.044969.037034.067453.089938.067454.158714-.000001.06907-.022485.122268-.067454.159595-.044675.037033-.108895.05555-.19266.05555h-.111981v.22837h-.169735zm.169735.123003v.183843h.093905c.032918 0 .058342-.007936.076271-.023807.017928-.016165.026893-.038943.026893-.068335 0-.029391-.008965-.052022-.026893-.067894-.017929-.015871-.043353-.023807-.076271-.023807zm.792244-.011904c-.051729.000001-.091848.019105-.120358.057313-.028509.03821-.042764.091996-.042764.161359 0 .06907.014255.122709.042764.160918.02851.038209.068629.057313.120358.057313.052022 0 .092288-.019104.120799-.057313.028509-.038209.042763-.091848.042764-.160918-.000001-.069363-.014255-.123149-.042764-.161359-.028511-.038208-.068777-.057312-.120799-.057313m0-.123003c.105808.000001.188692.030274.248651.09082.059958.060546.089937.144165.089938.250855-.000001.106397-.02998.189868-.089938.250414-.059959.060547-.142843.09082-.248651.09082-.105515 0-.188399-.030273-.248651-.09082-.059958-.060546-.089937-.144017-.089937-.250414 0-.10669.029979-.190309.089937-.250855.060252-.060546.143136-.090819.248651-.09082m.466441.011904h.189574l.239393.451451v-.451451h.160918v.658219h-.189575l-.239392-.451451v.451451h-.160918zm.663069 0h.185606l.149896.234543.149896-.234543h.186048l-.250856.380912v.277307h-.169735v-.277307z" fill="#4a4a4a"/></g><g transform="matrix(.533853 0 0 .533853 323.9134 416.5346)"><path d="m41.10058 35.051105a16.882174 4.552 0 1 1 -33.7643469 0 16.882174 4.552 0 1 1 33.7643469 0z" fill="url(#g)" fill-rule="evenodd" transform="matrix(1 0 0 1.368932 -1.978553 -13.61713)"/><path d="m-26.263968 29.716238a9.3944187 3.939595 0 1 1 -18.788837 0 9.3944187 3.939595 0 1 1 18.788837 0z" fill="#adb0aa" fill-rule="evenodd" stroke="#4b4d4a" transform="translate(57.53339 3.203427)"/><path d="m-26.263968 29.716238a9.3944187 3.939595 0 1 1 -18.788837 0 9.3944187 3.939595 0 1 1 18.788837 0z" fill="none" stroke="#7b7f7a" transform="matrix(.940273 0 0 .940273 55.40361 4.271194)"/><path d="m-26.263968 29.716238a9.3944187 3.939595 0 1 1 -18.788837 0 9.3944187 3.939595 0 1 1 18.788837 0z" fill="none" stroke="url(#h)" stroke-width=".680653" transform="matrix(.940273 0 0 .940273 55.40361 3.521194)"/><path d="m25.6875 28.766243-.0625 1s4.324108 3.599166 9 4.202507c2.337946.30167 4.753675.702412 6.75 1.1875s3.588356 1.119606 4.125 1.65625c.310411.310411.451063.573639.5.78125s.038217.354815-.09375.5625c-.263933.41537-1.079857.967652-2.46875 1.40625-2.777785.877195-7.720424 1.4375-14.5625 1.4375v1c6.895998 0 11.863665-.527671 14.84375-1.46875 1.490042-.47054 2.524942-1.015687 3.03125-1.8125.253154-.398406.357321-.888449.25-1.34375s-.384555-.884555-.78125-1.28125c-.87757-.87757-2.536838-1.40644-4.59375-1.90625s-4.515736-.914329-6.875-1.21875c-4.718527-.608842-9.0625-4.202507-9.0625-4.202507z" fill="#d0d0d0" fill-rule="evenodd" stroke="#979797" stroke-linejoin="round" stroke-width=".4"/><path d="m41.10058 35.051105a16.882174 4.552 0 1 1 -33.7643469 0 16.882174 4.552 0 1 1 33.7643469 0z" fill="url(#g)" fill-rule="evenodd" transform="matrix(1 0 0 1.368932 -1.978553 -19.02126)"/><path d="m17.472397 30.703611h9.039673v2.740039h-9.039673z" fill="url(#i)" fill-rule="evenodd"/><path d="m7.0809024 1.6956221h29.5881946c.911342 0 1.624147.5834818 1.666752 1.401587l1.332044 25.5781139c.058209 1.117735-.901056 2.020305-2.020305 2.020305h-31.545176c-1.1192491 0-2.078514-.90257-2.0203052-2.020305l1.3320438-25.5781139c.0402837-.7735346.5475027-1.401587 1.6667518-1.401587z" fill="url(#j)" fill-rule="evenodd" stroke="url(#k)"/><path d="m8.4105348 4.3058272-1.242195 22.0453168h27.6503892l-1.335017-21.9518882z" fill="url(#l)" fill-rule="evenodd" stroke="#000079" stroke-linejoin="round" stroke-width=".5"/><path d="m6.1774331 28.735789h31.4284769" fill="none" stroke="url(#m)" stroke-linecap="round" stroke-opacity=".248408" stroke-width=".996181"/><path d="m6.9145985 2.7063396 29.8455025-.0378013c.283697-.0003593.559302.2372498.582105.6525438l1.361892 24.8032479c.058039 1.057031-.539749 1.785871-1.598371 1.785871h-30.5239687c-1.0586228 0-1.5930144-.728791-1.5358714-1.785871l1.3240904-24.4941667c.0386959-.7158307.1663854-.9233446.5446212-.9238237z" fill="none" stroke="url(#n)" stroke-opacity=".700637"/><g fill-rule="evenodd"><path d="m8.7115364 4.7463626-.8025295 17.8703304c11.0446381-2.40063 11.4214631-10.492199 25.1540321-13.1467504l-.161472-4.6575159z" fill="url(#o)" opacity=".531429"/><path d="m41.10058 35.051105a16.882174 4.552 0 1 1 -33.7643469 0 16.882174 4.552 0 1 1 33.7643469 0z" fill="url(#g)" transform="matrix(1.264398 0 0 1.291262 -6.216332 -4.000423)"/><path d="m6.4621839 36.817452h31.0024061c1.119249 0 .977355.271438 1.092227.612846l2.834646 8.42481c.114872.341409.027022.612846-1.092227.612846h-36.6716978c-1.1192491 0-1.2070995-.271437-1.0922275-.612846l2.8346457-8.42481c.114872-.341409-.0270216-.612846 1.0922275-.612846z" fill="url(#p)" stroke="url(#k)"/><path d="m6.3916892 38.829113-1.7677669 5.126525h5.4800777l.53033-2.032932h14.849242l.549679 2.075114h6.167835l-1.679378-5.168707z" fill="#7a7d77"/><path d="m11.076272 42.27626-.441942 1.679379h14.760854l-.441942-1.767767z" fill="#777874"/><path d="m37.592776 38.829114 1.679379 5.038136-5.480078-.088389-1.502602-4.861359 5.303301-.088388z" fill="#777a75"/><path d="m37.592776 38.298786 1.679379 5.038136-5.480078-.088389-1.502602-4.861359 5.303301-.088388z" fill="url(#d)"/><path d="m6.3916892 38.210397-1.7677669 5.126525h5.4800777l.53033-2.032932h14.849242l.549679 2.075114h6.167835l-1.679378-5.168707z" fill="url(#d)"/><path d="m11.076272 41.745932-.441942 1.679379h14.760854l-.441942-1.767767-13.87697.088388z" fill="url(#d)"/></g><path d="m6.1278189 37.578116h31.8258151l2.637179 8.092563h-37.2610701l2.798076-8.092563z" fill="none" stroke="url(#e)" stroke-linejoin="round" stroke-width=".5"/><path d="m35.620504 3.9384086a.83968931.83968931 0 1 1 -1.679378 0 .83968931.83968931 0 1 1 1.679378 0z" fill="url(#f)" fill-rule="evenodd" transform="matrix(1.331237 0 0 .658449 -10.41933 2.853866)"/><path d="m35.620504 3.9384086a.83968931.83968931 0 1 1 -1.679378 0 .83968931.83968931 0 1 1 1.679378 0z" fill="url(#f)" fill-rule="evenodd" transform="matrix(1.331237 0 0 .658449 -10.30573 4.959651)"/><path d="m35.620504 3.9384086a.83968931.83968931 0 1 1 -1.679378 0 .83968931.83968931 0 1 1 1.679378 0z" fill="url(#f)" fill-rule="evenodd" transform="matrix(1.331237 0 0 .658449 -10.19213 6.959651)"/><path d="m35.620504 3.9384086a.83968931.83968931 0 1 1 -1.679378 0 .83968931.83968931 0 1 1 1.679378 0z" fill="url(#f)" fill-rule="evenodd" transform="matrix(1.331237 0 0 .658449 -10.07853 8.959651)"/><path d="m35.620504 3.9384086a.83968931.83968931 0 1 1 -1.679378 0 .83968931.83968931 0 1 1 1.679378 0z" fill="url(#f)" fill-rule="evenodd" transform="matrix(1.331237 0 0 .658449 -9.96493 10.95965)"/><path d="m20 27.317666h.281716c.083765.000001.147985.018664.19266.05599.044969.037034.067453.089938.067454.158714-.000001.06907-.022485.122268-.067454.159595-.044675.037033-.108895.05555-.19266.05555h-.111981v.22837h-.169735zm.169735.123003v.183843h.093905c.032918 0 .058342-.007936.076271-.023807.017928-.016165.026893-.038943.026893-.068335 0-.029391-.008965-.052022-.026893-.067894-.017929-.015871-.043353-.023807-.076271-.023807zm.792244-.011904c-.051729.000001-.091848.019105-.120358.057313-.028509.03821-.042764.091996-.042764.161359 0 .06907.014255.122709.042764.160918.02851.038209.068629.057313.120358.057313.052022 0 .092288-.019104.120799-.057313.028509-.038209.042763-.091848.042764-.160918-.000001-.069363-.014255-.123149-.042764-.161359-.028511-.038208-.068777-.057312-.120799-.057313m0-.123003c.105808.000001.188692.030274.248651.09082.059958.060546.089937.144165.089938.250855-.000001.106397-.02998.189868-.089938.250414-.059959.060547-.142843.09082-.248651.09082-.105515 0-.188399-.030273-.248651-.09082-.059958-.060546-.089937-.144017-.089937-.250414 0-.10669.029979-.190309.089937-.250855.060252-.060546.143136-.090819.248651-.09082m.466441.011904h.189574l.239393.451451v-.451451h.160918v.658219h-.189575l-.239392-.451451v.451451h-.160918zm.663069 0h.185606l.149896.234543.149896-.234543h.186048l-.250856.380912v.277307h-.169735v-.277307z" fill="#4a4a4a"/></g><path d="m37.88072 38.706596a14.344166 5.6568542 0 1 1 -28.6883315 0 14.344166 5.6568542 0 1 1 28.6883315 0z" fill="url(#q)" fill-rule="evenodd" opacity=".41" transform="matrix(1.666217 0 0 1.46541619068 290.2212364182 201.4392519226)"/><path d="m12.466718 7.9979592v33.5370658h21.962152v-33.7390963l-4.04061-4.2426407h-14.082962z" style="fill-rule:evenodd;stroke:#5e5e5e;stroke-width:.599502;stroke-linecap:round;stroke-linejoin:round;fill:url(#r)" transform="matrix(1.66908789189 0 0 1.66701845038 290.24090277745 191.37880696317)"/><path d="m16.428571 4-3.428571 4.8571429h20.285714l-3.714285-4.7142858z" fill="#fff" fill-opacity=".655367" fill-rule="evenodd" transform="matrix(1.72488616679 0 0 1.7152237744 289.4585405824 191.2744168019)"/><path d="m16.451418 11.291361h15.601009v4.242641h-15.601009z" fill="#fff" fill-rule="evenodd" opacity=".348571" stroke="#fff" stroke-width=".610342" transform="matrix(1.70883049978 0 0 1.57092438355 288.76802360083 192.06095453675)"/><path d="m13.465157 8.6221002v31.7810238h19.822439v-31.9645649l-3.670822-3.8543633h-12.664336z" fill="none" stroke="#fff" stroke-width=".595988" transform="matrix(1.68114297189 0 0 1.67463972694 290.07831165637 191.29155384375)"/><g fill-rule="evenodd"><path d="m21.541845 23.558765h10.897081v5.041853h-10.897081z" fill="url(#s)" opacity=".525714" stroke="url(#s)" stroke-width=".670645" transform="matrix(1.68195441957 0 0 1.3219082529 288.97939155836 200.31712475421)"/><path d="m20.770918 23.453293h10.4489v4.242641h-10.4489z" fill="#c8c8c8" stroke="#acacac" stroke-width=".602415" transform="matrix(1.75409661701 0 0 1.57092438355 287.94447585398 193.78319141851)"/><path d="m16.451418 17.291361h15.601009v4.242641h-15.601009z" fill="#fff" opacity=".348571" stroke="#fff" stroke-width=".610342" transform="matrix(1.70883049978 0 0 1.57092438355 288.76803193191 192.63271023543)"/><path d="m15.447355 16.382225h15.790874v4.242641h-15.790874z" fill="#c8c8c8" stroke="#acacac" stroke-width=".614044" transform="matrix(1.68828437795 0 0 1.57092438355 289.96807140722 193.22778630725)"/><path d="m15.447355 10.382225h15.790874v4.242641h-15.790874z" fill="#c8c8c8" stroke="#acacac" stroke-width=".614044" transform="matrix(1.68828437795 0 0 1.57092438355 289.96808473696 192.65603060857)"/><path d="m68.185294 26.231213a2.171828 2.171828 0 1 1 -4.343656 0 2.171828 2.171828 0 1 1 4.343656 0z" fill="#c8c8c8" stroke="#979797" stroke-width=".868872" transform="matrix(1.1509221939 0 0 1.15091416312 242.5708431954 204.60194733682)"/><path d="m16.667518 25.574614a.50507629.50507629 0 1 1 -1.010153 0 .50507629.50507629 0 1 1 1.010153 0z" fill="#fff" transform="matrix(1.48860559874 0 0 1.4885941316 293.66065966508 196.19529267775)"/><path d="m19.071575 29.817253h1.010153v10.101525h-1.010153z" fill="url(#t)" transform="matrix(1.64946985293 0 0 1.64947151915 290.42137074072 192.27426696953)"/><path d="m21.071575 29.817253h1.010153v10.101525h-1.010153z" fill="url(#u)" transform="matrix(1.64946985293 0 0 1.64947151915 290.45484837269 192.27426696953)"/><path d="m23.071575 29.817253h1.010153v10.101525h-1.010153z" fill="url(#v)" transform="matrix(1.64946985293 0 0 1.64947151915 290.4883410006 192.27426696953)"/><path d="m25.071575 29.817253h1.010153v10.101525h-1.010153z" fill="url(#w)" transform="matrix(1.64946985293 0 0 1.64947151915 290.52183362852 192.27426696953)"/><path d="m27.071575 29.817253h1.010153v10.101525h-1.010153z" fill="url(#x)" transform="matrix(1.64946985293 0 0 1.64947151915 290.55534791726 192.27426696953)"/><path d="m29.071575 29.817253h1.010153v10.101525h-1.010153z" fill="url(#y)" opacity=".542857" transform="matrix(1.64946985293 0 0 1.64947151915 290.58884221139 192.27426696953)"/><path d="m17.980711 29.817253h1.010153v10.101525h-1.010153z" fill="url(#z)" opacity=".16" transform="matrix(1.64946985293 0 0 1.64947151915 290.55448148442 192.27426696953)"/><path d="m19.980711 29.817253h1.010153v10.101525h-1.010153z" fill="url(#A)" opacity=".291429" transform="matrix(1.64946985293 0 0 1.64947151915 290.58799577316 192.27426696953)"/><path d="m21.980711 29.817253h1.010153v10.101525h-1.010153z" fill="url(#B)" opacity=".291429" transform="matrix(1.64946985293 0 0 1.64947151915 290.62149006729 192.27426696953)"/><path d="m23.980711 29.817253h1.010153v10.101525h-1.010153z" fill="url(#C)" opacity=".291429" transform="matrix(1.64946985293 0 0 1.64947151915 290.65498436142 192.27426696953)"/><path d="m25.980711 29.817253h1.010153v10.101525h-1.010153z" fill="url(#D)" opacity=".291429" transform="matrix(1.64946985293 0 0 1.64947151915 290.68845866095 192.27426696953)"/><path d="m27.980711 29.817253h1.010153v10.101525h-1.010153z" fill="url(#E)" opacity=".228571" transform="matrix(1.64946985293 0 0 1.64947151915 290.72195128887 192.27426696953)"/></g><path d="m303.23788 204.25168a2.4855564 2.4855564 0 1 1 -4.97112 0 2.4855564 2.4855564 0 1 1 4.97112 0z" fill="#4e9a06" stroke="#fff" stroke-width=".331982" transform="matrix(2.823946 0 0 2.823946 -527.7062 -326.5953)"/><path d="m303.23788 204.25168a2.4855564 2.4855564 0 1 1 -4.97112 0 2.4855564 2.4855564 0 1 1 4.97112 0z" fill="#3465a4" stroke="#fff" stroke-width=".331982" transform="matrix(2.823946 0 0 2.823946 -512.0338 -326.5953)"/><path d="m37.88072 38.706596a14.344166 5.6568542 0 1 1 -28.6883315 0 14.344166 5.6568542 0 1 1 28.6883315 0z" fill="url(#q)" fill-rule="evenodd" opacity=".41" transform="matrix(1.666217 0 0 1.46541619068 222.7292364182 335.6829519226)"/><path d="m12.466718 7.9979592v33.5370658h21.962152v-33.7390963l-4.04061-4.2426407h-14.082962z" style="fill-rule:evenodd;stroke:#5e5e5e;stroke-width:.599502;stroke-linecap:round;stroke-linejoin:round;fill:url(#r)" transform="matrix(1.66908789189 0 0 1.66701845038 222.74890277745 325.62250696317)"/><path d="m16.428571 4-3.428571 4.8571429h20.285714l-3.714285-4.7142858z" fill="#fff" fill-opacity=".655367" fill-rule="evenodd" transform="matrix(1.72488616679 0 0 1.7152237744 221.9665405824 325.5181168019)"/><path d="m16.451418 11.291361h15.601009v4.242641h-15.601009z" fill="#fff" fill-rule="evenodd" opacity=".348571" stroke="#fff" stroke-width=".610342" transform="matrix(1.70883049978 0 0 1.57092438355 221.27602360083 326.30465453675)"/><path d="m13.465157 8.6221002v31.7810238h19.822439v-31.9645649l-3.670822-3.8543633h-12.664336z" fill="none" stroke="#fff" stroke-width=".595988" transform="matrix(1.68114297189 0 0 1.67463972694 222.58631165637 325.53525384375)"/><path d="m21.541845 23.558765h10.897081v5.041853h-10.897081z" fill="url(#s)" fill-rule="evenodd" opacity=".525714" stroke="url(#s)" stroke-width=".670645" transform="matrix(1.68195441957 0 0 1.3219082529 221.48739155836 334.56082475421)"/><path d="m20.770918 23.453293h10.4489v4.242641h-10.4489z" fill="#c8c8c8" fill-rule="evenodd" stroke="#acacac" stroke-width=".602415" transform="matrix(1.75409661701 0 0 1.57092438355 220.45247585398 328.02689141851)"/><path d="m16.451418 17.291361h15.601009v4.242641h-15.601009z" fill="#fff" fill-rule="evenodd" opacity=".348571" stroke="#fff" stroke-width=".610342" transform="matrix(1.70883049978 0 0 1.57092438355 221.27603193191 326.87641023543)"/><path d="m15.447355 16.382225h15.790874v4.242641h-15.790874z" fill="#c8c8c8" fill-rule="evenodd" stroke="#acacac" stroke-width=".614044" transform="matrix(1.68828437795 0 0 1.57092438355 222.47607140722 327.47148630725)"/><path d="m15.447355 10.382225h15.790874v4.242641h-15.790874z" fill="#c8c8c8" fill-rule="evenodd" stroke="#acacac" stroke-width=".614044" transform="matrix(1.68828437795 0 0 1.57092438355 222.47608473696 326.89973060857)"/><path d="m68.185294 26.231213a2.171828 2.171828 0 1 1 -4.343656 0 2.171828 2.171828 0 1 1 4.343656 0z" fill="#c8c8c8" fill-rule="evenodd" stroke="#979797" stroke-width=".868872" transform="matrix(1.1509221939 0 0 1.15091416312 175.0788431954 338.84564733682)"/><path d="m16.667518 25.574614a.50507629.50507629 0 1 1 -1.010153 0 .50507629.50507629 0 1 1 1.010153 0z" fill="#fff" fill-rule="evenodd" transform="matrix(1.48860559874 0 0 1.4885941316 226.16865966508 330.43899267775)"/><path d="m19.071575 29.817253h1.010153v10.101525h-1.010153z" fill="url(#t)" fill-rule="evenodd" transform="matrix(1.64946985293 0 0 1.64947151915 222.92937074072 326.51796696953)"/><path d="m21.071575 29.817253h1.010153v10.101525h-1.010153z" fill="url(#u)" fill-rule="evenodd" transform="matrix(1.64946985293 0 0 1.64947151915 222.96284837269 326.51796696953)"/><path d="m23.071575 29.817253h1.010153v10.101525h-1.010153z" fill="url(#v)" fill-rule="evenodd" transform="matrix(1.64946985293 0 0 1.64947151915 222.9963410006 326.51796696953)"/><path d="m25.071575 29.817253h1.010153v10.101525h-1.010153z" fill="url(#w)" fill-rule="evenodd" transform="matrix(1.64946985293 0 0 1.64947151915 223.02983362852 326.51796696953)"/><path d="m27.071575 29.817253h1.010153v10.101525h-1.010153z" fill="url(#x)" fill-rule="evenodd" transform="matrix(1.64946985293 0 0 1.64947151915 223.06334791726 326.51796696953)"/><path d="m29.071575 29.817253h1.010153v10.101525h-1.010153z" fill="url(#y)" fill-rule="evenodd" opacity=".542857" transform="matrix(1.64946985293 0 0 1.64947151915 223.09684221139 326.51796696953)"/><path d="m17.980711 29.817253h1.010153v10.101525h-1.010153z" fill="url(#z)" fill-rule="evenodd" opacity=".16" transform="matrix(1.64946985293 0 0 1.64947151915 223.06248148442 326.51796696953)"/><path d="m19.980711 29.817253h1.010153v10.101525h-1.010153z" fill="url(#A)" fill-rule="evenodd" opacity=".291429" transform="matrix(1.64946985293 0 0 1.64947151915 223.09599577316 326.51796696953)"/><path d="m21.980711 29.817253h1.010153v10.101525h-1.010153z" fill="url(#B)" fill-rule="evenodd" opacity=".291429" transform="matrix(1.64946985293 0 0 1.64947151915 223.12949006729 326.51796696953)"/><path d="m23.980711 29.817253h1.010153v10.101525h-1.010153z" fill="url(#C)" fill-rule="evenodd" opacity=".291429" transform="matrix(1.64946985293 0 0 1.64947151915 223.16298436142 326.51796696953)"/><path d="m25.980711 29.817253h1.010153v10.101525h-1.010153z" fill="url(#D)" fill-rule="evenodd" opacity=".291429" transform="matrix(1.64946985293 0 0 1.64947151915 223.19645866095 326.51796696953)"/><path d="m27.980711 29.817253h1.010153v10.101525h-1.010153z" fill="url(#E)" fill-rule="evenodd" opacity=".228571" transform="matrix(1.64946985293 0 0 1.64947151915 223.22995128887 326.51796696953)"/><path d="m303.23788 204.25168a2.4855564 2.4855564 0 1 1 -4.97112 0 2.4855564 2.4855564 0 1 1 4.97112 0z" fill="#3465a4" stroke="#fff" stroke-width=".331982" transform="matrix(2.823946 0 0 2.823946 -595.1981 -192.3516)"/><path d="m303.23788 204.25168a2.4855564 2.4855564 0 1 1 -4.97112 0 2.4855564 2.4855564 0 1 1 4.97112 0z" fill="#c00" stroke="#fff" stroke-width=".331982" transform="matrix(2.823946 0 0 2.823946 -579.5257 -192.3516)"/><path d="m37.88072 38.706596a14.344166 5.6568542 0 1 1 -28.6883315 0 14.344166 5.6568542 0 1 1 28.6883315 0z" fill="url(#q)" fill-rule="evenodd" opacity=".41" transform="matrix(1.666217 0 0 1.46541619068 153.7028364182 201.4392519226)"/><path d="m12.466718 7.9979592v33.5370658h21.962152v-33.7390963l-4.04061-4.2426407h-14.082962z" style="fill-rule:evenodd;stroke:#5e5e5e;stroke-width:.599502;stroke-linecap:round;stroke-linejoin:round;fill:url(#r)" transform="matrix(1.66908789189 0 0 1.66701845038 153.72250277745 191.37880696317)"/><path d="m16.428571 4-3.428571 4.8571429h20.285714l-3.714285-4.7142858z" fill="#fff" fill-opacity=".655367" fill-rule="evenodd" transform="matrix(1.72488616679 0 0 1.7152237744 152.9401405824 191.2744168019)"/><path d="m16.451418 11.291361h15.601009v4.242641h-15.601009z" fill="#fff" fill-rule="evenodd" opacity=".348571" stroke="#fff" stroke-width=".610342" transform="matrix(1.70883049978 0 0 1.57092438355 152.24962360083 192.06095453675)"/><path d="m13.465157 8.6221002v31.7810238h19.822439v-31.9645649l-3.670822-3.8543633h-12.664336z" fill="none" stroke="#fff" stroke-width=".595988" transform="matrix(1.68114297189 0 0 1.67463972694 153.55991165637 191.29155384375)"/><path d="m21.541845 23.558765h10.897081v5.041853h-10.897081z" fill="url(#s)" fill-rule="evenodd" opacity=".525714" stroke="url(#s)" stroke-width=".670645" transform="matrix(1.68195441957 0 0 1.3219082529 152.46099155836 200.31712475421)"/><path d="m20.770918 23.453293h10.4489v4.242641h-10.4489z" fill="#c8c8c8" fill-rule="evenodd" stroke="#acacac" stroke-width=".602415" transform="matrix(1.75409661701 0 0 1.57092438355 151.42607585398 193.78319141851)"/><path d="m16.451418 17.291361h15.601009v4.242641h-15.601009z" fill="#fff" fill-rule="evenodd" opacity=".348571" stroke="#fff" stroke-width=".610342" transform="matrix(1.70883049978 0 0 1.57092438355 152.24963193191 192.63271023543)"/><path d="m15.447355 16.382225h15.790874v4.242641h-15.790874z" fill="#c8c8c8" fill-rule="evenodd" stroke="#acacac" stroke-width=".614044" transform="matrix(1.68828437795 0 0 1.57092438355 153.44967140722 193.22778630725)"/><path d="m15.447355 10.382225h15.790874v4.242641h-15.790874z" fill="#c8c8c8" fill-rule="evenodd" stroke="#acacac" stroke-width=".614044" transform="matrix(1.68828437795 0 0 1.57092438355 153.44968473696 192.65603060857)"/><path d="m68.185294 26.231213a2.171828 2.171828 0 1 1 -4.343656 0 2.171828 2.171828 0 1 1 4.343656 0z" fill="#c8c8c8" fill-rule="evenodd" stroke="#979797" stroke-width=".868872" transform="matrix(1.1509221939 0 0 1.15091416312 106.0524431954 204.60194733682)"/><path d="m16.667518 25.574614a.50507629.50507629 0 1 1 -1.010153 0 .50507629.50507629 0 1 1 1.010153 0z" fill="#fff" fill-rule="evenodd" transform="matrix(1.48860559874 0 0 1.4885941316 157.14225966508 196.19529267775)"/><path d="m19.071575 29.817253h1.010153v10.101525h-1.010153z" fill="url(#t)" fill-rule="evenodd" transform="matrix(1.64946985293 0 0 1.64947151915 153.90297074072 192.27426696953)"/><path d="m21.071575 29.817253h1.010153v10.101525h-1.010153z" fill="url(#u)" fill-rule="evenodd" transform="matrix(1.64946985293 0 0 1.64947151915 153.93644837269 192.27426696953)"/><path d="m23.071575 29.817253h1.010153v10.101525h-1.010153z" fill="url(#v)" fill-rule="evenodd" transform="matrix(1.64946985293 0 0 1.64947151915 153.9699410006 192.27426696953)"/><path d="m25.071575 29.817253h1.010153v10.101525h-1.010153z" fill="url(#w)" fill-rule="evenodd" transform="matrix(1.64946985293 0 0 1.64947151915 154.00343362852 192.27426696953)"/><path d="m27.071575 29.817253h1.010153v10.101525h-1.010153z" fill="url(#x)" fill-rule="evenodd" transform="matrix(1.64946985293 0 0 1.64947151915 154.03694791726 192.27426696953)"/><path d="m29.071575 29.817253h1.010153v10.101525h-1.010153z" fill="url(#y)" fill-rule="evenodd" opacity=".542857" transform="matrix(1.64946985293 0 0 1.64947151915 154.07044221139 192.27426696953)"/><path d="m17.980711 29.817253h1.010153v10.101525h-1.010153z" fill="url(#z)" fill-rule="evenodd" opacity=".16" transform="matrix(1.64946985293 0 0 1.64947151915 154.03608148442 192.27426696953)"/><path d="m19.980711 29.817253h1.010153v10.101525h-1.010153z" fill="url(#A)" fill-rule="evenodd" opacity=".291429" transform="matrix(1.64946985293 0 0 1.64947151915 154.06959577316 192.27426696953)"/><path d="m21.980711 29.817253h1.010153v10.101525h-1.010153z" fill="url(#B)" fill-rule="evenodd" opacity=".291429" transform="matrix(1.64946985293 0 0 1.64947151915 154.10309006729 192.27426696953)"/><path d="m23.980711 29.817253h1.010153v10.101525h-1.010153z" fill="url(#C)" fill-rule="evenodd" opacity=".291429" transform="matrix(1.64946985293 0 0 1.64947151915 154.13658436142 192.27426696953)"/><path d="m25.980711 29.817253h1.010153v10.101525h-1.010153z" fill="url(#D)" fill-rule="evenodd" opacity=".291429" transform="matrix(1.64946985293 0 0 1.64947151915 154.17005866095 192.27426696953)"/><path d="m27.980711 29.817253h1.010153v10.101525h-1.010153z" fill="url(#E)" fill-rule="evenodd" opacity=".228571" transform="matrix(1.64946985293 0 0 1.64947151915 154.20355128887 192.27426696953)"/><path d="m303.23788 204.25168a2.4855564 2.4855564 0 1 1 -4.97112 0 2.4855564 2.4855564 0 1 1 4.97112 0z" fill="#4e9a06" stroke="#fff" stroke-width=".331982" transform="matrix(2.823946 0 0 2.823946 -664.2246 -326.5953)"/><path d="m303.23788 204.25168a2.4855564 2.4855564 0 1 1 -4.97112 0 2.4855564 2.4855564 0 1 1 4.97112 0z" fill="#3465a4" stroke="#fff" stroke-width=".331982" transform="matrix(2.823946 0 0 2.823946 -648.5522 -326.5953)"/><g transform="translate(2.340769 1.391809)"><path d="m233.53125 214.4375c-4.37567 1.24766-8.74901 2.50353-13.125 3.75l13.125 3.75c-.9375-.9375-1.875-1.875-2.8125-2.8125h56.8125c-.9375.9375-1.875 1.875-2.8125 2.8125l13.125-3.75c-4.375-1.25-8.75-2.5-13.125-3.75l2.8125 2.8125c-18.9375 0-37.875 0-56.8125 0z" fill="#4e9a06"/><path d="m233.53125 238.53125c-4.37567 1.24766-8.74901 2.50353-13.125 3.75l13.125 3.75c-.9375-.9375-1.875-1.875-2.8125-2.8125h56.8125c-.9375.9375-1.875 1.875-2.8125 2.8125 4.37692-1.26665 8.76468-2.47729 13.125-3.75-4.29172-1.39451-8.72967-2.49419-13.125-3.75l2.8125 2.8125c-18.9375 0-37.875 0-56.8125 0z" fill="#3465a4"/></g><path d="m316.43452 269.04229-10.15625 9.125 3.875-.875c-10.1918 16.23004-18.10766 28.80176-21.3125 33.90625l-.875-3.875-3.78125 13.125 10.15625-9.125-3.90625.90625c.46783-.74112 5.86435-9.33056 21.3125-33.9375l.875 3.875z" fill="#3465a4"/><path d="m240.12202 399.38604c-4.38367 1.19355-8.76876 2.38255-13.15625 3.5625 1.28125.32292 2.5625.64583 3.84375.96875-6.02083 3.625-12.04167 7.25-18.0625 10.875.32292-1.28125.64583-2.5625.96875-3.84375-3.09668 3.33062-6.18672 6.66743-9.28125 10 4.39013-1.16986 8.77221-2.36984 13.15625-3.5625-1.29167-.32292-2.58333-.64583-3.875-.96875 6.02083-3.625 12.04167-7.25 18.0625-10.875-.3125 1.28125-.625 2.5625-.9375 3.84375 3.09833-3.32912 6.18914-6.66524 9.28125-10z" fill="#c00"/><g transform="translate(-1.391113 2.667292)"><path d="m258.0625 398.88477c-1.2466 4.37595-2.50226 8.74935-3.75 13.125l2.8125-2.8125v23.65625c-.9375-.9375-1.875-1.875-2.8125-2.8125 1.24768 4.37566 2.5035 8.74901 3.75 13.125 1.2466-4.37596 2.50226-8.74936 3.75-13.125-.9375.9375-1.875 1.875-2.8125 2.8125 0-7.88542 0-15.77084 0-23.65625l2.8125 2.8125c-1.24768-4.37567-2.50351-8.74902-3.75-13.125z" fill="#3465a4"/><path d="m268.61209 398.88477c-1.2466 4.37595-2.50225 8.74935-3.75 13.125.9375-.9375 1.875-1.875 2.8125-2.8125v23.65625c-.9375-.9375-1.875-1.875-2.8125-2.8125 1.24768 4.37566 2.50351 8.74901 3.75 13.125 1.2466-4.37596 2.50226-8.74936 3.75-13.125-.9375.9375-1.875 1.875-2.8125 2.8125 0-7.88542 0-15.77084 0-23.65625l2.8125 2.8125c-1.24768-4.37567-2.5035-8.74902-3.75-13.125z" fill="#c00"/></g><path d="m382.09077 166.1349c-3.97497 2.22615-7.96057 4.43348-11.9375 6.65625h3.96875c-6.32292 6.3125-12.64583 12.625-18.96875 18.9375 0-1.32292 0-2.64583 0-3.96875-2.19986 3.98391-4.42145 7.95591-6.625 11.9375 3.98179-2.20319 7.95347-4.42535 11.9375-6.625-1.32292 0-2.64583 0-3.96875 0 6.3125-6.32292 12.625-12.64583 18.9375-18.96875v3.96875c2.22292-3.97684 4.42987-7.96267 6.65625-11.9375z" fill="#4e9a06"/><path d="m368.18452 227.87618c-4.37568 1.24763-8.74899 2.50359-13.125 3.75 4.37595 1.24664 8.74936 2.50223 13.125 3.75-.9375-.9375-1.875-1.875-2.8125-2.8125h44.59375c-.9375.9375-1.875 1.875-2.8125 2.8125 4.37568-1.24763 8.74899-2.50359 13.125-3.75-4.37595-1.24664-8.74936-2.50223-13.125-3.75l2.8125 2.8125c-14.86458 0-29.72917 0-44.59375 0 .9375-.9375 1.875-1.875 2.8125-2.8125z" fill="#4e9a06"/><g transform="translate(2.340769 6.891809)"><path d="m126.4375 216c-4.37567 1.24767-8.74901 2.50352-13.125 3.75 4.37596 1.24659 8.74935 2.50226 13.125 3.75-.9375-.9375-1.875-1.875-2.8125-2.8125h33.96875c-.9375.9375-1.875 1.875-2.8125 2.8125 4.37567-1.24767 8.74901-2.50352 13.125-3.75-4.37596-1.24659-8.74935-2.50226-13.125-3.75l2.8125 2.8125c-11.32292 0-22.64583 0-33.96875 0z" fill="#3465a4"/><path d="m126.45313 225.96875c-4.37567 1.24767-8.74901 2.50353-13.12501 3.75 4.37596 1.24659 8.74936 2.50226 13.12501 3.75-.9375-.9375-1.87501-1.875-2.81251-2.8125h33.9375c-.9375.9375-1.875 1.875-2.8125 2.8125 4.37567-1.24767 8.74901-2.50353 13.125-3.75-4.37595-1.2466-8.74935-2.50226-13.125-3.75.9375.9375 1.87501 1.875 2.8125 2.8125-11.3125 0-22.625 0-33.9375 0 .9375-.9375 1.87501-1.875 2.81251-2.8125z" fill="#4e9a06"/></g><path d="m140.10419 166.1349c3.97497 2.22615 7.96057 4.43348 11.9375 6.65625-1.32292 0-2.64583 0-3.96875 0 6.32292 6.3125 12.64583 12.625 18.96875 18.9375 0-1.32292 0-2.64583 0-3.96875 2.19986 3.98391 4.42145 7.95591 6.625 11.9375-3.98179-2.20319-7.95347-4.42535-11.9375-6.625h3.96875c-6.3125-6.32292-12.625-12.64583-18.9375-18.96875v3.96875c-2.22292-3.97684-4.42987-7.96267-6.65625-11.9375z" fill="#3465a4"/><path d="m286.51212 399.38604c4.38367 1.19355 8.76876 2.38255 13.15625 3.5625-1.28125.32292-2.5625.64583-3.84375.96875 6.02083 3.625 12.04167 7.25 18.0625 10.875-.32292-1.28125-.64583-2.5625-.96875-3.84375 3.09668 3.33062 6.18672 6.66743 9.28125 10-4.39013-1.16986-8.77221-2.36984-13.15625-3.5625 1.29167-.32292 2.58333-.64583 3.875-.96875-6.02083-3.625-12.04167-7.25-18.0625-10.875l.9375 3.84375c-3.09833-3.32912-6.18914-6.66524-9.28125-10z" fill="#3465a4"/><g transform="matrix(.533853 0 0 .533853 392.3793 328.0079)"><path d="m41.10058 35.051105a16.882174 4.552 0 1 1 -33.7643469 0 16.882174 4.552 0 1 1 33.7643469 0z" fill="url(#g)" fill-rule="evenodd" transform="matrix(1 0 0 1.368932 -1.978553 -13.61713)"/><path d="m-26.263968 29.716238a9.3944187 3.939595 0 1 1 -18.788837 0 9.3944187 3.939595 0 1 1 18.788837 0z" fill="#adb0aa" fill-rule="evenodd" stroke="#4b4d4a" transform="translate(57.53339 3.203427)"/><path d="m-26.263968 29.716238a9.3944187 3.939595 0 1 1 -18.788837 0 9.3944187 3.939595 0 1 1 18.788837 0z" fill="none" stroke="#7b7f7a" transform="matrix(.940273 0 0 .940273 55.40361 4.271194)"/><path d="m-26.263968 29.716238a9.3944187 3.939595 0 1 1 -18.788837 0 9.3944187 3.939595 0 1 1 18.788837 0z" fill="none" stroke="url(#h)" stroke-width=".680653" transform="matrix(.940273 0 0 .940273 55.40361 3.521194)"/><path d="m25.6875 28.766243-.0625 1s4.324108 3.599166 9 4.202507c2.337946.30167 4.753675.702412 6.75 1.1875s3.588356 1.119606 4.125 1.65625c.310411.310411.451063.573639.5.78125s.038217.354815-.09375.5625c-.263933.41537-1.079857.967652-2.46875 1.40625-2.777785.877195-7.720424 1.4375-14.5625 1.4375v1c6.895998 0 11.863665-.527671 14.84375-1.46875 1.490042-.47054 2.524942-1.015687 3.03125-1.8125.253154-.398406.357321-.888449.25-1.34375s-.384555-.884555-.78125-1.28125c-.87757-.87757-2.536838-1.40644-4.59375-1.90625s-4.515736-.914329-6.875-1.21875c-4.718527-.608842-9.0625-4.202507-9.0625-4.202507z" fill="#d0d0d0" fill-rule="evenodd" stroke="#979797" stroke-linejoin="round" stroke-width=".4"/><path d="m41.10058 35.051105a16.882174 4.552 0 1 1 -33.7643469 0 16.882174 4.552 0 1 1 33.7643469 0z" fill="url(#g)" fill-rule="evenodd" transform="matrix(1 0 0 1.368932 -1.978553 -19.02126)"/><path d="m17.472397 30.703611h9.039673v2.740039h-9.039673z" fill="url(#i)" fill-rule="evenodd"/><path d="m7.0809024 1.6956221h29.5881946c.911342 0 1.624147.5834818 1.666752 1.401587l1.332044 25.5781139c.058209 1.117735-.901056 2.020305-2.020305 2.020305h-31.545176c-1.1192491 0-2.078514-.90257-2.0203052-2.020305l1.3320438-25.5781139c.0402837-.7735346.5475027-1.401587 1.6667518-1.401587z" fill="url(#j)" fill-rule="evenodd" stroke="url(#k)"/><path d="m8.4105348 4.3058272-1.242195 22.0453168h27.6503892l-1.335017-21.9518882z" fill="url(#l)" fill-rule="evenodd" stroke="#000079" stroke-linejoin="round" stroke-width=".5"/><path d="m6.1774331 28.735789h31.4284769" fill="none" stroke="url(#m)" stroke-linecap="round" stroke-opacity=".248408" stroke-width=".996181"/><path d="m6.9145985 2.7063396 29.8455025-.0378013c.283697-.0003593.559302.2372498.582105.6525438l1.361892 24.8032479c.058039 1.057031-.539749 1.785871-1.598371 1.785871h-30.5239687c-1.0586228 0-1.5930144-.728791-1.5358714-1.785871l1.3240904-24.4941667c.0386959-.7158307.1663854-.9233446.5446212-.9238237z" fill="none" stroke="url(#n)" stroke-opacity=".700637"/><g fill-rule="evenodd"><path d="m8.7115364 4.7463626-.8025295 17.8703304c11.0446381-2.40063 11.4214631-10.492199 25.1540321-13.1467504l-.161472-4.6575159z" fill="url(#o)" opacity=".531429"/><path d="m41.10058 35.051105a16.882174 4.552 0 1 1 -33.7643469 0 16.882174 4.552 0 1 1 33.7643469 0z" fill="url(#g)" transform="matrix(1.264398 0 0 1.291262 -6.216332 -4.000423)"/><path d="m6.4621839 36.817452h31.0024061c1.119249 0 .977355.271438 1.092227.612846l2.834646 8.42481c.114872.341409.027022.612846-1.092227.612846h-36.6716978c-1.1192491 0-1.2070995-.271437-1.0922275-.612846l2.8346457-8.42481c.114872-.341409-.0270216-.612846 1.0922275-.612846z" fill="url(#p)" stroke="url(#k)"/><path d="m6.3916892 38.829113-1.7677669 5.126525h5.4800777l.53033-2.032932h14.849242l.549679 2.075114h6.167835l-1.679378-5.168707z" fill="#7a7d77"/><path d="m11.076272 42.27626-.441942 1.679379h14.760854l-.441942-1.767767z" fill="#777874"/><path d="m37.592776 38.829114 1.679379 5.038136-5.480078-.088389-1.502602-4.861359 5.303301-.088388z" fill="#777a75"/><path d="m37.592776 38.298786 1.679379 5.038136-5.480078-.088389-1.502602-4.861359 5.303301-.088388z" fill="url(#d)"/><path d="m6.3916892 38.210397-1.7677669 5.126525h5.4800777l.53033-2.032932h14.849242l.549679 2.075114h6.167835l-1.679378-5.168707z" fill="url(#d)"/><path d="m11.076272 41.745932-.441942 1.679379h14.760854l-.441942-1.767767-13.87697.088388z" fill="url(#d)"/></g><path d="m6.1278189 37.578116h31.8258151l2.637179 8.092563h-37.2610701l2.798076-8.092563z" fill="none" stroke="url(#e)" stroke-linejoin="round" stroke-width=".5"/><path d="m35.620504 3.9384086a.83968931.83968931 0 1 1 -1.679378 0 .83968931.83968931 0 1 1 1.679378 0z" fill="url(#f)" fill-rule="evenodd" transform="matrix(1.331237 0 0 .658449 -10.41933 2.853866)"/><path d="m35.620504 3.9384086a.83968931.83968931 0 1 1 -1.679378 0 .83968931.83968931 0 1 1 1.679378 0z" fill="url(#f)" fill-rule="evenodd" transform="matrix(1.331237 0 0 .658449 -10.30573 4.959651)"/><path d="m35.620504 3.9384086a.83968931.83968931 0 1 1 -1.679378 0 .83968931.83968931 0 1 1 1.679378 0z" fill="url(#f)" fill-rule="evenodd" transform="matrix(1.331237 0 0 .658449 -10.19213 6.959651)"/><path d="m35.620504 3.9384086a.83968931.83968931 0 1 1 -1.679378 0 .83968931.83968931 0 1 1 1.679378 0z" fill="url(#f)" fill-rule="evenodd" transform="matrix(1.331237 0 0 .658449 -10.07853 8.959651)"/><path d="m35.620504 3.9384086a.83968931.83968931 0 1 1 -1.679378 0 .83968931.83968931 0 1 1 1.679378 0z" fill="url(#f)" fill-rule="evenodd" transform="matrix(1.331237 0 0 .658449 -9.96493 10.95965)"/><path d="m20 27.317666h.281716c.083765.000001.147985.018664.19266.05599.044969.037034.067453.089938.067454.158714-.000001.06907-.022485.122268-.067454.159595-.044675.037033-.108895.05555-.19266.05555h-.111981v.22837h-.169735zm.169735.123003v.183843h.093905c.032918 0 .058342-.007936.076271-.023807.017928-.016165.026893-.038943.026893-.068335 0-.029391-.008965-.052022-.026893-.067894-.017929-.015871-.043353-.023807-.076271-.023807zm.792244-.011904c-.051729.000001-.091848.019105-.120358.057313-.028509.03821-.042764.091996-.042764.161359 0 .06907.014255.122709.042764.160918.02851.038209.068629.057313.120358.057313.052022 0 .092288-.019104.120799-.057313.028509-.038209.042763-.091848.042764-.160918-.000001-.069363-.014255-.123149-.042764-.161359-.028511-.038208-.068777-.057312-.120799-.057313m0-.123003c.105808.000001.188692.030274.248651.09082.059958.060546.089937.144165.089938.250855-.000001.106397-.02998.189868-.089938.250414-.059959.060547-.142843.09082-.248651.09082-.105515 0-.188399-.030273-.248651-.09082-.059958-.060546-.089937-.144017-.089937-.250414 0-.10669.029979-.190309.089937-.250855.060252-.060546.143136-.090819.248651-.09082m.466441.011904h.189574l.239393.451451v-.451451h.160918v.658219h-.189575l-.239392-.451451v.451451h-.160918zm.663069 0h.185606l.149896.234543.149896-.234543h.186048l-.250856.380912v.277307h-.169735v-.277307z" fill="#4a4a4a"/></g><path d="m334.84719 266.16915c2.20375 3.97675 4.44761 7.9318 6.65625 11.90625 0-1.32292 0-2.64583 0-3.96875 14.26042 14.27083 28.52083 28.54167 42.78125 42.8125-1.32292 0-2.64583 0-3.96875 0 3.98416 2.19941 7.95552 4.42215 11.9375 6.625-2.21227-3.97677-4.40862-7.96276-6.625-11.9375v4c-14.27083-14.27083-28.54167-28.54167-42.8125-42.8125h3.96875c-3.98417-2.19941-7.95552-4.42215-11.9375-6.625z" fill="#4e9a06"/><path d="m376.54667 335.31441c1.14583.66667 2.29167 1.33333 3.4375 2-28.5 7.625-57 15.25-85.5 22.875.66667-1.14583 1.33333-2.29167 2-3.4375-3.90492 2.34594-7.83132 4.65635-11.71875 7.03125 4.55187.08451 9.1041.14942 13.65625.21875-1.14583-.66667-2.29167-1.33333-3.4375-2l85.5-22.875c-.66667 1.14583-1.33333 2.29167-2 3.4375 3.89415-2.34656 7.78996-4.69038 11.6875-7.03125-4.54167-.07292-9.08333-.14583-13.625-.21875z" fill="#c00"/><path d="m376.54667 344.3088c1.14583.66667 2.29167 1.33333 3.4375 2-28.5 7.625-57 15.25-85.5 22.875.66667-1.14583 1.33333-2.29167 2-3.4375-3.90492 2.34594-7.83132 4.65635-11.71875 7.03125 4.55187.08451 9.1041.14942 13.65625.21875-1.14583-.66667-2.29167-1.33333-3.4375-2l85.5-22.875c-.66667 1.14583-1.33333 2.29167-2 3.4375 3.89415-2.34656 7.78996-4.69038 11.6875-7.03125-4.54167-.07292-9.08333-.14583-13.625-.21875z" fill="#3465a4"/></g></svg>